<?xml version="1.0" encoding="UTF-8"?>
<svg width="1200pt" height="1200pt" version="1.1" viewBox="0 0 1200 1200" xmlns="http://www.w3.org/2000/svg">
 <path d="m1020.8 503.44c-24.984-26.625-66.797-29.531-95.203-6.5625l-96.984 78.281 129.94-206.58c10.969-17.484 14.25-38.109 9.1875-58.078s-17.766-36.562-35.719-46.688c-33.328-18.75-75.234-9.375-97.406 21.75l-98.109 137.9 83.484-196.13c8.4844-19.969 8.5312-41.953 0.046875-61.922-8.4375-19.969-24.234-35.297-44.484-43.078-38.812-14.953-82.969 2.8594-100.45 40.594l-100.78 217.36 34.969-177.98c7.9219-40.406-18.328-80.203-58.594-88.781-38.953-8.25-77.953 15.188-88.781 53.531-19.922 70.594-56.25 202.13-75.562 289.5-16.828 76.219-51.609 120.19-73.312 141.28-24.797-75.094-68.25-125.44-132.28-153.37-27.797-12.141-57.094-13.312-82.922-3.1406-19.688 7.8281-33.891 23.953-37.078 42.047-4.6875 26.297 13.453 48.422 23.203 60.328 38.953 47.531 43.828 113.06 48.562 176.48l1.0312 13.922c6.4688 83.344 33.984 159.52 79.547 220.36 50.297 67.172 146.81 105.05 175.22 115.03 35.391 12.469 71.062 18.703 105.28 18.703 32.578 0 63.844-5.6719 92.297-16.969 90.141-35.859 168.71-128.21 240.1-282.24l192.52-187.26c27.234-26.484 28.219-70.547 2.25-98.25zm-27.328 72.422-194.9 189.61c-1.5938 1.5469-2.8594 3.375-3.7969 5.3906-67.734 147.05-140.39 234.37-222.1 266.9-50.25 20.016-111.47 19.219-172.31-2.25-69.328-24.422-128.53-62.812-158.39-102.7-41.484-55.359-66.516-125.06-72.469-201.56l-1.0312-13.781c-4.9219-65.766-10.453-140.26-56.625-196.6-8.3906-10.266-17.25-21.984-15.609-31.219 1.0312-5.7188 7.0312-11.719 15.281-15 7.125-2.8125 14.859-4.2188 22.828-4.2188 10.406 0 21.281 2.3438 32.016 7.0312 60.375 26.344 99.422 77.203 119.44 155.53 0.32812 1.5 0.89062 3 1.6406 4.4531 0.23438 0.46875 0.51562 0.89062 0.79688 1.3125 2.2969 3.5625 5.7188 6.0938 9.5156 7.3125 102.66 34.406 142.22 99.797 124.6 205.82-1.6406 9.7969 4.9688 19.078 14.812 20.719 9.75 1.6406 19.078-4.9688 20.719-14.812 18.75-112.55-21.328-191.29-119.2-234.52 25.875-25.172 64.219-74.719 82.828-159 19.125-86.484 55.219-217.26 75.047-287.48 5.6719-20.109 26.156-32.484 46.594-28.078 21.141 4.5 34.969 25.406 30.797 46.641l-63.75 324.42c-1.7344 8.9531 3.4219 17.766 12.094 20.578 8.625 2.8125 18.047-1.2656 21.891-9.5625l163.55-352.74c9.5625-20.625 33.656-30.328 54.844-22.172 11.062 4.2656 19.688 12.609 24.281 23.531s4.5938 22.922-0.046874 33.797l-148.5 348.89c-3.6094 8.4375-0.23438 18.281 7.7812 22.734 8.0156 4.4531 18.141 2.2031 23.438-5.25l194.34-273.19c11.484-16.125 33.141-21 50.438-11.25 9.2812 5.25 15.891 13.828 18.516 24.141 2.625 10.359 0.9375 21.047-4.7344 30.047l-187.5 298.08c-4.6875 7.4531-3.2812 17.203 3.2812 23.016 6.5625 5.8594 16.406 6.0938 23.25 0.5625l181.03-146.16c13.781-11.156 34.172-9.75 46.312 3.1875 12.656 13.5 12.141 34.922-1.0781 47.812zm-715.78-293.68c8.4844-62.109 42.375-119.06 92.906-156.19 8.0156-5.8594 19.266-4.1719 25.172 3.8438 5.8594 8.0156 4.1719 19.266-3.8438 25.172-42.094 30.891-71.438 80.25-78.516 132.05-1.2188 9-8.9531 15.562-17.812 15.562-0.79688 0-1.6406-0.046876-2.4375-0.1875-9.8438-1.3594-16.734-10.406-15.375-20.25zm-39.75-82.641c8.9062-26.297 24.094-50.484 43.922-69.984 7.0781-6.9844 18.469-6.8906 25.453 0.1875s6.8906 18.469-0.1875 25.453c-15.797 15.562-27.938 34.922-35.062 55.922-2.5312 7.5-9.5625 12.234-17.062 12.234-1.9219 0-3.8438-0.32812-5.7656-0.9375-9.4219-3.1875-14.438-13.406-11.25-22.828zm857.86 452.39c-8.3906 56.859-41.812 110.02-89.391 142.26-3.0938 2.1094-6.6094 3.0938-10.078 3.0938-5.7656 0-11.438-2.7656-14.906-7.875-5.5781-8.25-3.4219-19.406 4.7812-24.984 39.375-26.672 67.031-70.688 73.969-117.75 1.4531-9.8438 10.641-16.594 20.438-15.188 9.8438 1.4531 16.641 10.594 15.188 20.438zm43.078 82.031c-7.9688 21.516-21.281 40.922-38.531 56.109-3.4219 3-7.6406 4.5-11.859 4.5-4.9688 0-9.9375-2.0625-13.5-6.0938-6.5625-7.4531-5.8125-18.844 1.6406-25.406 12.797-11.25 22.641-25.641 28.547-41.578 3.4219-9.3281 13.781-14.062 23.109-10.641 9.3281 3.4688 14.062 13.781 10.641 23.109z"/>
</svg>
