<?xml version="1.0" encoding="UTF-8"?>
<svg width="1200pt" height="1200pt" version="1.1" viewBox="0 0 1200 1200" xmlns="http://www.w3.org/2000/svg">
 <path d="m838.99 864.54c-23.883 0-46.324-9.3047-63.199-26.191l-134.14-134.13 33.141-33.152 134.14 134.13c8.0273 8.0273 18.703 12.457 30.047 12.457 11.355 0 22.031-4.418 30.059-12.457 8.0273-8.0273 12.457-18.703 12.457-30.047 0-11.355-4.418-22.031-12.457-30.059l-134.13-134.14 33.141-33.141 134.14 134.14c16.887 16.887 26.18 39.328 26.18 63.211 0 23.883-9.3047 46.324-26.191 63.199-16.875 16.875-39.316 26.18-63.188 26.18z"/>
 <path d="m745.73 957.81c-23.883 0-46.336-9.293-63.211-26.18l-134.16-134.16 33.141-33.152 134.16 134.17c8.0273 8.0273 18.703 12.445 30.07 12.445 11.355 0 22.031-4.418 30.07-12.457 16.559-16.559 16.559-43.523-0.023438-60.105l-134.14-134.16 33.152-33.152 134.16 134.16c34.852 34.852 34.863 91.559 0.011719 126.41-16.91 16.887-39.352 26.18-63.223 26.18z"/>
 <path d="m652.46 1051.1c-23.871 0-46.312-9.293-63.211-26.168l-2.9297-2.9297 33.141-33.152 2.918 2.918c8.0273 8.0273 18.715 12.445 30.07 12.445 11.367 0 22.043-4.418 30.07-12.445 16.57-16.57 16.559-43.535-0.011719-60.105l-134.14-134.16 33.141-33.152 134.16 134.17c34.852 34.852 34.863 91.559 0.011719 126.41-16.875 16.875-39.328 26.168-63.211 26.168z"/>
 <path d="m932.26 771.27c-23.871 0-46.312-9.293-63.211-26.168l-134.16-134.16 33.141-33.152 134.16 134.14c8.0273 8.0273 18.715 12.445 30.07 12.445 11.367 0 22.043-4.418 30.07-12.445 16.57-16.57 16.559-43.535-0.011719-60.117l-391.46-391.45c-45.387-45.398-105.74-70.395-169.96-70.406-64.184 0-124.55 25.008-169.95 70.406-45.41 45.398-70.406 105.76-70.406 169.96 0 64.195 24.996 124.56 70.395 169.96l15.492 15.492-33.141 33.152-15.492-15.492c-54.258-54.258-84.129-126.39-84.129-203.11 0-76.723 29.883-148.85 84.129-203.1 54.258-54.258 126.39-84.141 203.1-84.141 76.734 0.011718 148.86 29.895 203.1 84.141l391.46 391.46c34.852 34.852 34.852 91.559 0.011718 126.4-16.875 16.887-39.328 26.18-63.211 26.18z"/>
 <path d="m992.54 648.91-33.141-33.152 9.668-9.668c45.422-45.387 70.418-105.74 70.406-169.95 0-64.195-24.996-124.55-70.395-169.95-93.703-93.703-246.2-93.715-339.93-0.011719l-9.668 9.668-33.141-33.141 9.668-9.668c54.258-54.246 126.39-84.117 203.11-84.117s148.85 29.883 203.1 84.129 84.129 126.38 84.129 203.09c0.011719 76.734-29.871 148.86-84.141 203.11z"/>
 <path d="m454.27 963.61c-22.887 0-45.785-8.7188-63.211-26.145-16.875-16.875-26.168-39.316-26.168-63.199 0-23.871 9.293-46.312 26.168-63.211l14.273-14.273c16.875-16.875 39.316-26.18 63.199-26.18 23.883 0 46.312 9.293 63.199 26.18 16.875 16.875 26.18 39.328 26.18 63.211 0 23.871-9.293 46.312-26.156 63.199l-14.285 14.285c-17.426 17.426-40.312 26.133-63.199 26.133zm14.262-146.12c-11.355 0-22.02 4.418-30.047 12.445l-14.262 14.262c-8.0273 8.0273-12.445 18.715-12.445 30.07 0 11.367 4.418 22.031 12.434 30.059 16.582 16.57 43.547 16.582 60.117 0.011719l14.273-14.273c8.0156-8.0273 12.434-18.703 12.434-30.059 0-11.367-4.418-22.043-12.445-30.07-8.0391-8.0273-18.715-12.445-30.059-12.445z"/>
 <path d="m360.98 870.35c-22.887 0-45.785-8.707-63.211-26.133-16.875-16.875-26.168-39.328-26.168-63.211 0-23.871 9.293-46.312 26.168-63.211l14.273-14.273c34.863-34.84 91.559-34.84 126.4 0 16.875 16.887 26.18 39.328 26.18 63.211 0 23.871-9.293 46.312-26.156 63.199l-14.273 14.273c-17.426 17.426-40.312 26.145-63.211 26.145zm14.262-146.1c-10.887 0-21.773 4.1484-30.059 12.434l-14.262 14.262c-8.0273 8.0273-12.445 18.715-12.445 30.07 0 11.367 4.418 22.031 12.434 30.059 16.582 16.57 43.559 16.57 60.141 0l14.262-14.262c8.0156-8.0273 12.434-18.703 12.434-30.059 0-11.367-4.418-22.043-12.445-30.07-8.2852-8.2969-19.172-12.434-30.059-12.434z"/>
 <path d="m547.52 1056.9s-0.011719 0 0 0c-23.883 0-46.324-9.3047-63.211-26.18-16.875-16.875-26.168-39.316-26.168-63.199 0-23.871 9.293-46.312 26.156-63.199l14.285-14.285c34.852-34.84 91.547-34.84 126.39 0 16.875 16.887 26.18 39.328 26.18 63.211 0 23.871-9.293 46.312-26.156 63.199l-14.285 14.285c-16.875 16.863-39.316 26.168-63.188 26.168zm14.25-146.14c-10.887 0-21.762 4.1484-30.047 12.434l-14.273 14.273c-8.0156 8.0273-12.434 18.703-12.434 30.059 0 11.367 4.418 22.031 12.434 30.059 8.0273 8.0273 18.703 12.457 30.059 12.457s22.02-4.418 30.047-12.445l14.273-14.273c8.0156-8.0273 12.434-18.703 12.434-30.059 0-11.367-4.418-22.043-12.445-30.07-8.2734-8.2969-19.16-12.434-30.047-12.434z"/>
 <path d="m267.73 777.08c-22.887 0-45.785-8.707-63.211-26.133-16.875-16.875-26.168-39.328-26.168-63.211 0-23.871 9.293-46.312 26.168-63.211l14.273-14.273c34.863-34.852 91.57-34.852 126.41-0.011718 16.887 16.887 26.18 39.352 26.168 63.246 0 23.848-9.293 46.289-26.156 63.176l-14.273 14.273c-17.426 17.426-40.312 26.145-63.211 26.145zm14.285-146.11c-10.887 0-21.785 4.1484-30.082 12.434l-14.262 14.262c-8.0273 8.0273-12.445 18.715-12.445 30.07 0 11.367 4.418 22.031 12.434 30.059 16.582 16.57 43.559 16.57 60.141 0l14.262-14.262c8.0156-8.0273 12.434-18.703 12.434-30.059 0.011718-11.379-4.4062-22.055-12.434-30.082-8.2852-8.2852-19.16-12.422-30.047-12.422z"/>
</svg>
