<svg width="48" height="48" viewBox="0 0 48 48" fill="none" xmlns="http://www.w3.org/2000/svg">
<path d="M46.0145 25.0133C45.8945 25.1333 45.6545 25.2533 45.6545 25.4933C45.6545 25.7333 45.6545 25.8533 45.7745 25.9733C45.8945 25.9733 46.0145 25.9733 46.1345 25.9733C46.2545 25.8533 46.3745 25.8533 46.6145 25.7333C47.2145 25.7333 47.4545 25.8533 47.3345 26.4533C47.2145 26.9333 47.0945 27.4133 46.9745 27.8933C46.7345 28.7333 46.4945 29.6933 46.3745 30.5333C46.2545 31.1333 45.6545 31.4933 45.5345 31.9733C45.4145 32.5733 45.2945 33.0533 44.8145 33.4133C44.6945 33.5333 44.6945 33.6533 44.5745 33.7733C44.2145 35.9333 42.6545 37.3733 41.2145 38.8133C40.6145 39.4133 40.0145 40.0133 39.4145 40.3733C39.2945 40.4933 39.1745 40.6133 39.0545 40.3733C38.9345 40.1333 38.8145 40.0133 38.8145 40.3733C38.6945 40.6133 38.6945 40.7333 38.4545 40.8533C36.7745 42.0533 35.0945 43.1333 33.1745 44.0933C32.3345 44.4533 31.3745 44.8133 30.5345 45.1733C29.8145 45.6533 28.8545 45.8933 28.0145 46.0133C27.1745 46.1333 26.3345 46.4933 25.4945 46.4933C25.1345 46.6133 24.6545 46.6133 24.1745 46.7333C23.6945 46.8533 23.3345 46.7333 22.9745 46.3733C22.7345 46.0133 22.7345 46.1333 22.4945 46.3733C22.2545 46.7333 22.2545 46.7333 21.8945 46.3733C21.8945 46.2533 21.8945 46.1333 21.7745 46.1333C21.5345 46.0133 21.4145 45.6533 21.1745 45.7733C20.9345 45.8933 20.6945 46.1333 20.6945 46.4933C20.8145 46.9733 20.5745 46.9733 20.2145 46.9733C19.2545 46.9733 18.2945 47.0933 17.3345 47.0933C16.0145 47.0933 14.5745 46.7333 13.2545 46.3733C12.8945 46.2533 12.8945 45.8933 12.6545 45.7733C11.9345 45.5333 11.3345 45.4133 10.6145 45.1733C8.81451 44.4533 7.2545 43.4933 5.8145 42.1733C4.7345 41.0933 3.7745 40.1333 3.0545 38.9333C2.2145 37.4933 1.37451 36.0533 1.01451 34.4933C1.01451 34.3733 0.894505 34.1333 0.894505 34.1333C-0.0654949 32.5733 -0.065499 30.8933 0.0545008 29.2133C0.174501 28.6133 0.174507 28.0133 0.294506 27.4133C0.414506 26.3333 0.294504 25.1333 0.534504 24.0533C0.534504 23.5733 0.654505 22.9733 0.894505 22.4933C1.13451 22.1333 1.13451 21.7733 1.25451 21.4133C1.49451 19.8533 1.73451 18.4133 2.33451 16.9733C2.69451 16.2533 2.9345 15.5333 3.1745 14.8133C3.4145 14.3333 3.53451 13.8533 4.01451 13.4933C4.13451 13.4933 4.1345 13.3733 4.1345 13.3733C4.0145 12.2933 4.85451 11.8133 5.33451 11.0933C5.69451 10.3733 6.29451 9.65333 7.01451 9.17333C7.61451 8.69333 7.9745 8.09333 8.4545 7.49333C9.1745 6.41333 10.1345 5.57333 11.2145 4.73333C12.8945 3.41333 14.8145 2.45332 16.9745 1.73333C17.9345 1.37332 19.0145 1.13333 20.0945 0.893329C22.2545 0.533334 24.2945 0.29333 26.4545 0.0533326C26.8145 -0.0666658 27.1745 0.0533326 27.5345 0.0533326C29.2145 -0.0666658 30.8945 0.173327 32.4545 0.773326C33.5345 1.13333 34.6145 1.49333 35.6945 1.85333C36.2945 2.21333 36.8945 2.45333 37.3745 2.93333C38.0945 3.65333 38.8145 4.37332 39.5345 4.97332C40.0145 5.45332 40.7345 5.69333 41.0945 6.17333C41.4545 6.53333 41.8145 6.77333 41.9345 7.25333C41.9345 7.49333 42.1745 7.73333 42.2945 7.85333C42.8945 8.33333 43.4945 8.81333 43.8545 9.41333C44.5745 10.4933 45.4145 11.4533 45.7745 12.7733C46.1345 14.6933 46.7345 16.4933 47.2145 18.4133C47.3345 19.0133 47.5745 19.7333 47.2145 20.3333C46.9745 20.6933 47.0945 21.0533 47.2145 21.2933C47.5745 22.6133 47.4545 23.9333 46.8545 25.1333C46.8545 25.3733 46.6145 25.3733 46.4945 25.1333C46.3745 24.8933 46.2545 24.8933 46.0145 25.0133ZM43.3745 24.0533C43.9745 23.4533 43.7345 23.0933 43.4945 22.4933C43.4945 22.4933 43.4945 22.3733 43.4945 22.2533C43.1345 21.1733 43.1345 20.0933 42.8945 19.0133C42.4145 17.6933 42.1745 16.3733 41.9345 15.1733C41.5745 13.9733 41.2145 12.7733 40.1345 11.9333C40.0145 11.8133 39.8945 11.6933 39.7745 11.5733C39.2945 10.9733 38.6945 10.6133 38.5745 9.89333C38.4545 9.53333 38.2145 9.41333 37.9745 9.29333C36.6545 8.45333 35.4545 7.61332 34.6145 6.41333C34.1345 5.81332 33.6545 5.57333 32.9345 5.45333C32.5745 5.45333 32.2145 5.33333 31.8545 5.21333C31.0145 5.09333 30.1745 4.61333 29.3345 4.37332C28.1345 4.01333 26.8145 3.65333 25.6145 4.13333C25.4945 4.13333 25.3745 4.13333 25.1345 4.25333C24.8945 4.25333 24.6545 4.25333 24.5345 3.89333C24.5345 3.65333 24.4145 3.77333 24.2945 3.89333C24.1745 4.13333 23.9345 4.13332 23.8145 4.01332C23.2145 4.01332 22.7345 3.65333 22.1345 3.53333C22.1345 3.53333 22.0145 3.41332 22.0145 3.29332C22.1345 2.57332 21.6545 2.81333 21.2945 2.81333C20.0945 3.05332 19.0145 3.41333 17.9345 3.77333C17.4545 3.89332 16.9745 4.01333 16.7345 4.13333C16.2545 4.49333 15.7745 4.73332 15.4145 4.97332C14.6945 5.33333 13.9745 5.69333 13.3745 6.17333C12.4145 7.13333 11.4545 8.09333 10.4945 9.17333C9.2945 10.3733 8.3345 11.6933 7.4945 13.1333C6.4145 14.9333 5.8145 16.9733 5.0945 18.8933C4.9745 19.2533 5.09451 19.6133 4.61451 19.7333C4.49451 19.7333 4.4945 19.8533 4.4945 19.9733C4.7345 20.0933 4.61451 20.3333 4.61451 20.4533C4.61451 20.9333 4.2545 21.0533 4.1345 21.4133C4.1345 21.7733 4.37451 22.1333 4.25451 22.6133C4.13451 22.8533 4.2545 22.9733 4.1345 23.2133C3.7745 24.0533 3.89451 25.0133 3.5345 25.9733C3.4145 26.4533 3.2945 26.9333 3.5345 27.4133C3.6545 27.6533 3.65451 27.8933 3.65451 28.1333C3.53451 28.7333 3.65451 29.2133 3.65451 29.9333C3.65451 31.1333 3.89451 32.5733 4.61451 33.7733C4.61451 33.8933 4.7345 34.0133 4.7345 34.1333C5.0945 34.9733 5.81451 35.6933 5.93451 36.6533C6.65451 37.1333 7.0145 37.8533 7.4945 38.3333C8.3345 39.0533 9.0545 39.7733 9.7745 40.4933C10.0145 40.7333 10.3745 41.0933 10.6145 40.9733C11.0945 40.9733 11.3345 41.0933 11.5745 41.3333C11.6945 41.5733 12.0545 41.6933 12.2945 41.6933C13.2545 41.9333 14.0945 42.2933 14.9345 42.6533C15.4145 42.8933 16.0145 43.1333 16.4945 43.1333C17.3345 43.2533 18.0545 43.2533 18.7745 43.1333C19.8545 42.8933 21.0545 43.2533 22.1345 42.8933C22.8545 43.1333 23.6945 42.7733 24.4145 42.7733C25.3745 42.6533 26.2145 42.1733 27.1745 42.4133C27.2945 42.4133 27.4145 42.2933 27.5345 42.2933C28.1345 41.6933 29.0945 41.8133 29.8145 41.3333C30.4145 41.3333 30.8945 40.8533 31.4945 40.6133C32.0945 40.2533 32.6945 39.8933 33.4145 39.6533C34.0145 39.4133 34.3745 38.9333 34.8545 38.5733C36.0545 37.9733 37.2545 37.1333 38.2145 36.1733C38.3345 36.0533 38.5745 35.9333 38.6945 35.8133C39.4145 35.4533 39.7745 34.9733 40.2545 34.3733C40.3745 34.1333 40.4945 33.7733 40.8545 33.6533C41.2145 33.4133 41.4545 33.1733 41.4545 32.6933C41.4545 32.2133 41.5745 31.9733 41.9345 31.8533C42.0545 31.7333 42.1745 31.7333 42.1745 31.6133C41.8145 31.1333 42.4145 30.8933 42.4145 30.5333C42.4145 30.0533 42.6545 29.5733 42.8945 29.2133C42.8945 29.0933 43.0145 28.8533 43.0145 28.7333C43.1345 27.8933 43.4945 26.9333 43.2545 25.9733C43.2545 25.7333 43.2545 25.3733 43.2545 25.1333C43.2545 24.7733 43.2545 24.1733 43.3745 24.0533ZM37.2545 19.8533C37.4945 19.7333 37.4945 19.9733 37.6145 20.0933C37.7345 20.3333 37.7345 20.5733 37.6145 20.8133C37.4945 21.1733 37.4945 21.5333 37.4945 21.8933C37.4945 22.1333 37.4945 22.4933 37.1345 22.4933C36.8945 22.4933 37.0145 22.7333 36.8945 22.8533C36.8945 23.3333 37.3745 23.6933 37.1345 24.1733C36.6545 25.1333 36.5345 26.2133 35.8145 27.0533C35.5745 27.4133 35.4545 27.6533 35.2145 28.0133C34.8545 28.4933 34.3745 28.9733 33.7745 29.0933C33.4145 29.0933 33.1745 29.3333 32.9345 29.5733C32.3345 30.4133 31.4945 30.8933 30.6545 31.3733C29.9345 31.7333 29.3345 32.0933 28.8545 32.6933C28.1345 33.2933 27.2945 33.6533 26.3345 33.8933C24.6545 34.3733 22.8545 34.2533 21.1745 34.2533C20.2145 34.2533 19.3745 34.2533 18.5345 34.2533C17.8145 34.2533 17.2145 34.2533 16.6145 34.1333C15.4145 33.8933 14.4545 33.2933 13.7345 32.2133C13.6145 31.9733 13.4945 31.7333 13.1345 31.6133C12.0545 31.2533 11.4545 30.4133 10.8545 29.5733C10.7345 29.4533 10.7345 29.2133 10.6145 28.9733C10.6145 28.7333 10.6145 28.4933 10.8545 28.3733C11.0945 28.2533 11.2145 28.1333 11.4545 27.8933C11.5745 27.6533 11.6945 27.6533 11.9345 27.8933C12.6545 28.7333 13.3745 29.4533 14.2145 29.8133C14.9345 30.1733 15.5345 30.6533 16.0145 31.2533C16.4945 31.6133 16.9745 32.0933 17.6945 31.9733C17.8145 31.9733 18.0545 32.0933 18.2945 32.0933C18.4145 32.2133 18.6545 32.0933 18.7745 31.9733C19.7345 31.3733 19.7345 31.3733 20.6945 31.9733C20.8145 32.0933 21.0545 32.0933 21.0545 31.9733C21.1745 31.6133 21.2945 31.4933 21.6545 31.6133C23.0945 31.7333 24.5345 31.3733 25.8545 31.0133C25.9745 30.8933 26.2145 30.8933 26.2145 30.7733C26.6945 30.1733 27.5345 30.0533 28.0145 29.4533C28.3745 28.9733 28.9745 28.8533 29.5745 28.4933C29.6945 28.3733 29.9345 28.3733 30.0545 28.2533C30.4145 27.8933 30.6545 27.8933 31.0145 28.1333C31.2545 28.3733 31.3745 28.1333 31.3745 27.8933C31.1345 27.5333 31.2545 27.5333 31.6145 27.4133C31.9745 27.0533 32.3345 26.6933 32.6945 26.2133C33.0545 25.6133 33.6545 25.3733 33.7745 24.6533C33.8945 23.9333 34.2545 23.4533 34.4945 22.8533C34.6145 22.2533 34.8545 21.6533 34.7345 21.0533C34.4945 20.2133 34.9745 19.6133 35.5745 19.1333C35.9345 18.7733 36.4145 18.8933 36.6545 19.3733C36.7745 19.6133 36.8945 19.9733 37.2545 19.8533ZM16.8545 16.8533C17.0945 15.8933 16.4945 15.0533 16.4945 14.2133C16.4945 14.0933 16.4945 13.9733 16.4945 13.8533C16.2545 12.5333 16.8545 12.4133 17.9345 12.6533H18.0545C18.7745 12.7733 19.1345 13.2533 19.3745 13.9733C19.7345 14.9333 20.0945 16.0133 19.8545 17.0933C19.8545 17.2133 19.8545 17.3333 19.9745 17.3333C20.4545 17.9333 20.3345 18.7733 20.6945 19.3733C21.0545 20.2133 21.0545 21.1733 21.5345 22.0133C21.6545 22.1333 21.6545 22.3733 21.6545 22.6133C21.7745 23.2133 21.7745 23.2133 21.0545 23.5733C20.3345 23.9333 19.4945 24.2933 18.6545 24.2933C17.9345 24.2933 17.8145 24.1733 17.5745 23.5733C17.5745 23.4533 17.4545 23.2133 17.4545 23.0933C17.3345 21.2933 17.0945 19.6133 16.8545 17.8133C16.8545 17.4533 16.8545 17.2133 16.8545 16.8533ZM23.8145 14.4533C23.8145 14.3333 23.8145 14.0933 23.6945 13.8533C23.3345 13.2533 23.4545 12.5333 23.5745 11.9333C23.6945 11.2133 24.0545 11.0933 24.6545 11.3333C24.6545 11.3333 24.6545 11.3333 24.7745 11.3333C25.0145 11.4533 25.3745 11.5733 25.4945 11.9333C25.8545 12.6533 26.8145 12.8933 26.8145 13.8533C26.8145 14.6933 26.9345 15.4133 26.9345 16.3733C27.0545 16.9733 26.8145 17.5733 27.1745 18.2933C27.1745 18.4133 27.0545 18.6533 27.0545 18.7733C27.0545 19.0133 26.9345 19.1333 27.0545 19.2533C27.7745 20.0933 27.2945 20.8133 27.0545 21.5333C26.8145 22.0133 26.3345 22.2533 25.8545 22.4933C25.1345 22.8533 24.5345 22.6133 24.5345 21.7733C24.6545 20.4533 24.0545 19.1333 24.1745 17.8133C24.1745 17.3333 24.0545 16.9733 23.9345 16.6133C23.8145 15.8933 23.6945 15.1733 23.8145 14.4533Z" fill="#332A24"/>
</svg>
