<?xml version="1.0" encoding="UTF-8"?>
<svg width="1200pt" height="1200pt" version="1.1" viewBox="0 0 1200 1200" xmlns="http://www.w3.org/2000/svg">
 <path fill="currentColor" d="m1121.2 255.86c-5.8164-6.8867-14.512-10.559-23.629-9.6758l-36.941 3.3594-2.125-3.6562c-5.1133-8.8242-14.16-14.16-24.887-13.773l-77.742 2.6211c-0.3125 0-0.60938 0.019531-0.92188 0.035156l-1.6445-3.6914c-5.2266-11.777-17.871-18.332-30.516-15.969l-22.727 4.3555c-5.4453 1.0508-10.449 3.6914-14.383 7.625l-24.738 24.773-4.1367 2.0664h-15.379l-0.16797-0.054688c-0.33203-13.383-10.191-24.645-23.465-26.695l-11.355-1.7539c-2.2695-0.35156-4.5234-0.44141-6.7578-0.20312l-1.625-9.4727c-1.3828-7.957-6.168-14.898-13.09-19.051-6.9219-4.1523-15.27-5.0781-22.965-2.4922l-13.09 4.3555c-2.8633 0.96094-5.5391 2.3633-7.9219 4.1719l-41.465-18.773-32.18-21.453c-4.543-3.0273-9.8945-4.6523-15.359-4.6523h-15.914l-3.8945-3.0078c-6.7734-5.207-15.602-6.9961-23.871-4.8555l-20.113 5.25c-4.7812 1.2383-9.1367 3.7461-12.629 7.2539l-9.6016 9.6172c-0.054687 0.054688-0.10938 0.10938-0.18359 0.18359-4.3398-8.6758-13.125-14.789-23.445-15.27l-34.836-1.6602c-4.8008-8.5273-13.922-14.105-24.129-14.105h-30.461l-11.297-44.891-6.793-46.707c-1.4023-9.6172-7.7188-17.777-16.672-21.543l-16.617-6.9766c-1.5703-0.66406-3.1953-1.1641-4.8555-1.5312l-20.086-4.375c-4.875-1.0898-9.9336-0.79297-14.66 0.79297l-5.2422 1.7539c-10.91 3.6289-18.461 13.691-18.887 25.23l-1.6445 44.918-236.18-0.22266h-0.019531c-8.8633 0-17.188 4.2461-22.395 11.41-5.2266 7.1797-6.6836 16.43-3.9336 24.867l13.68 41.945-4.2461 27.617c-0.23438 1.4023-0.34766 2.8047-0.34766 4.2109v89.703c0 2.8438 0.44141 5.6875 1.3125 8.3984l13.977 43.938c0.58984 1.8633 1.3828 3.6758 2.3438 5.3711l13.312 23.242 4.0234 80.125c0.035157 0.77344 0.10938 1.5312 0.20312 2.2891l15.73 117.49c0.12891 0.99609 0.33203 1.9766 0.55469 2.9531l15.137 61.348 3.2695 51.691v35.777l-4.9648 5.5938-13.254 9.582c-7.1992 5.207-11.484 13.551-11.484 22.449v13.09c0 4.5039 1.1094 8.9531 3.2109 12.941l7.8477 14.863c1.6445 3.082 3.8398 5.832 6.5156 8.1055l28.727 24.516 3.4883 15.934-0.003906 310.56c0 7.3828 2.9531 14.473 8.2148 19.66 5.1875 5.1328 12.184 8.0312 19.477 8.0312h0.27734l527.36-5.2422 185.19-6.1289c7.5703-0.25781 14.73-3.6016 19.773-9.2695 5.0234-5.668 7.5312-13.164 6.9062-20.715l-4.375-52.395c-0.48047-5.7773-2.7891-11.281-6.5547-15.711l-15.73-18.352c-1.7891-2.0664-3.8398-3.8594-6.1289-5.3164l-58.078-37.125-28.227-41.594c-3.7461-5.5195-9.3789-9.5078-15.82-11.207l-20.051-5.2969-11.668-16.34c-5.1875-7.293-13.586-11.613-22.543-11.613h-15.82l-15.766-17.133-3.582-50.141 0.70312-26.566 10.34-20.676c2.9922-5.9805 3.7109-12.848 2.0312-19.328l-6.1172-23.574c-1.125-4.3203-3.2695-8.3086-6.2578-11.629l-13.328-14.75 10.727-29.762 40.449-29.965c1.6797-1.2188 3.2109-2.6758 4.5586-4.2266l10.469-12.238c4.4492-5.207 6.8125-11.871 6.6445-18.703l-1.7344-68.602 1.0508-15.691 14.75-17.023 25.348-19.328 4.375-0.68359c6.3125-0.97656 12.074-4.0977 16.355-8.8438l35.371-39.285 10.34-4.5977c5.2617-2.3242 9.6562-6.2578 12.609-11.227l19.293-32.789 18.758-28.137 20.789-17.426 38.66-16.117 80.66-35.965 34.078-15.73c7.5312-3.4727 13.109-10.137 15.195-18.148l5.2422-20.105c2.2852-8.6875 0.16406-17.992-5.6719-24.859z"/>
</svg>
