<?xml version="1.0" encoding="UTF-8"?>
<svg width="1200pt" height="1200pt" version="1.1" viewBox="0 0 1200 1200" xmlns="http://www.w3.org/2000/svg">
 <path d="m919.82 789.37c-0.32812 0.14062-0.32812 0.60938 0 0.75 30.422 12.656 59.344 28.734 86.25 47.812 12.422 8.8125 25.406 18.844 38.906 30.094 8.625 7.2188 17.203 13.922 13.922 26.672-1.2188 5.1562-4.8281 9.4688-9.75 11.438-8.0625 3.5156-19.266 7.9219-33.609 13.219-64.125 24.188-132.56 34.734-201 31.078-23.391-1.4062-46.594-4.9219-69.375-10.547-51.234-12.234-99.844-33.516-143.53-62.859-0.42188-0.28125-0.9375-0.28125-1.3594 0-9.1875 6.5156-18.703 12.516-28.594 18-22.031 12.234-44.953 22.781-68.578 31.547-42.75 15.797-87.891 24.047-133.45 24.469-56.391 0.5625-112.41-8.1094-165.94-25.781-14.953-4.9219-29.391-10.125-43.219-15.609-9.0469-3.6094-15.609-6.3281-17.625-14.531l0.046875 0.046875c-2.25-8.8594 1.4062-18.094 9.0938-23.062 17.297-14.531 31.688-25.828 43.125-33.938 26.812-19.031 55.547-35.109 85.781-48 0.1875-0.09375 0.32812-0.28125 0.32812-0.51562 0-0.1875-0.14062-0.375-0.375-0.46875-5.3906-1.9219-10.688-4.1719-15.891-6.7031-94.078-47.859-166.36-129.74-202.26-228.98-3.1406-6.0469-3.4688-13.125-0.84375-19.406 3-5.5312 8.2969-9.4688 14.484-10.688 45-11.203 91.172-16.969 137.53-17.203 0.1875 0 0.375-0.09375 0.51562-0.23438 0.09375-0.09375 0.14062-0.28125 0.14062-0.46875-2.6719-16.266-5.7188-35.062-7.2188-50.25-3.75-39.656-3.5625-79.547 0.5625-119.16 0-4.9688 1.9688-9.6562 5.4844-13.125 3.4688-3.4688 8.2031-5.4375 13.172-5.3906 9.4219 0.5625 18.844 1.7812 28.125 3.6562 40.969 7.3594 80.672 20.297 118.12 38.438 0.28125 0.09375 0.5625-0.046875 0.60938-0.32812 4.125-24.281 10.641-48.047 19.406-71.016 1.5-4.5469 3.4219-8.9062 5.7188-13.078 6.1406-9.1406 18.422-11.766 27.844-6 34.406 19.172 65.25 44.156 91.172 73.828 0.46875 0.46875 1.2656 0.42188 1.5938-0.14062 18.562-29.672 40.219-57.234 64.641-82.266 5.0625-7.0312 13.969-10.125 22.312-7.8281 4.1719 1.5 7.9219 4.0781 10.875 7.4062 25.641 25.219 48.047 53.484 66.797 84.141 0.23438 0.46875 0.84375 0.51562 1.1719 0.09375 5.5781-6.5156 11.391-12.844 17.297-18.938 21.469-21.656 45.703-40.359 72-55.688 5.3906-3.6094 12.047-4.5938 18.234-2.7188 6.1875 1.8281 11.203 6.375 13.688 12.281 10.969 25.406 18.516 52.078 22.547 79.453 0.046875 0.42188 0.51562 0.65625 0.89062 0.46875 41.344-20.297 85.547-34.125 131.06-40.922 5.2969-0.70312 10.594-1.125 15.938-1.2656 0.60938 0 1.2656 0.046875 1.9219 0.23438 8.7656 1.8281 15.141 9.4219 15.516 18.375 6.0469 56.484 3.9844 113.53-6.1875 169.45-0.046875 0.375 0.23438 0.70312 0.60938 0.70312 44.062 0.60938 87.891 5.8125 130.82 15.609 7.125 0.5625 13.828 3.6562 18.844 8.7656 7.3594 8.7188 3.6094 17.344-0.375 27.469-39.516 99.844-113.44 187.36-213.61 230.26h0.046876c-1.4531 0.5625-2.8594 1.0312-4.3594 1.3594zm-318 41.109h0.09375v0.046875c5.7656-3.9844 11.297-8.3438 16.5-13.078 92.578-83.109 115.78-215.72 82.969-331.4-18.422-67.547-52.734-129.74-100.08-181.36-0.1875-0.1875-0.46875-0.23438-0.70312-0.23438-0.28125 0-0.51562 0.09375-0.75 0.23438-47.062 51.844-81.094 114.14-99.234 181.78-32.297 115.83-8.5312 248.34 84.422 331.08h0.046875c5.2031 4.6875 10.781 9 16.594 12.938zm-125.68-400.4v0.046875c0.09375 0.046875 0.1875 0.046875 0.28125 0s0.1875-0.14062 0.23437-0.23438l19.828-45.844c0.09375-0.28125 0.09375-0.60938-0.09375-0.84375-17.156-22.828-37.547-43.031-60.562-59.906-3.5156-2.5781-6.6562-4.6875-9.4219-6.3281h-0.046874c-0.375-0.23438-0.89063-0.046875-1.0312 0.42188-6.0938 20.391-10.688 41.203-13.688 62.297-0.09375 0.51562 0.14062 1.0312 0.5625 1.3125 22.312 14.391 43.406 30.656 62.953 48.609 0.14063 0.14062 0.32813 0.23438 0.5625 0.28125 0.14063 0.046875 0.32813 0.14062 0.46875 0.1875zm250.92-0.09375-0.046874 0.046875c0.14062-0.09375 0.28125-0.14062 0.42187-0.1875 0.23438-0.046875 0.375-0.14062 0.5625-0.28125 19.359-18 40.219-34.312 62.297-48.75 0.46875-0.28125 0.65625-0.79688 0.60937-1.3125-3.1406-20.953-7.8281-41.625-14.016-61.875-0.046876-0.23438-0.23438-0.42188-0.42188-0.51562s-0.42187-0.09375-0.65625 0c-2.7656 1.6875-5.9062 3.7969-9.375 6.375h0.046876c-22.828 16.969-42.984 37.172-59.906 60-0.1875 0.23438-0.1875 0.5625-0.09375 0.84375l19.969 45.516h0.046874c0.046876 0.09375 0.14063 0.14062 0.23438 0.1875s0.1875 0.046875 0.28125 0zm28.594 162.42-0.046874 0.046875c0 0.14062 0.046874 0.23438 0.1875 0.28125 0.09375 0.09375 0.23437 0.09375 0.32812 0 53.203-46.031 118.83-75.281 188.63-84.188 0.32812-0.046875 0.60938-0.32812 0.70312-0.65625 9.9844-48 12.984-97.219 8.8125-146.11 0-0.375-0.1875-0.70312-0.51562-0.9375-0.28125-0.1875-0.65625-0.28125-0.98438-0.1875-45.328 9.0938-88.828 25.453-128.9 48.469-30.328 17.344-57.938 39.047-82.031 64.359-0.79688 0.84375-1.0781 2.0156-0.79688 3.1406 10.453 37.688 15.375 76.734 14.625 115.83zm-309-0.23438-0.046874 0.046875c-0.89063-39.047 3.8906-78.094 14.25-115.78 0.28125-1.125 0-2.3438-0.84375-3.1406-24.094-25.266-51.75-46.828-82.078-64.125-40.078-22.875-83.625-39.141-128.9-48.094-0.375-0.09375-0.75 0-1.0312 0.23438-0.28125 0.1875-0.46875 0.51562-0.46875 0.89062-4.0312 48.844-0.9375 98.016 9.1875 145.97 0.09375 0.375 0.375 0.60938 0.70312 0.65625 69.75 8.7188 135.37 37.828 188.68 83.625 0.09375 0.09375 0.23438 0.09375 0.32812 0 0.14062 0 0.23438-0.09375 0.23438-0.23438zm-88.688 175.03c-0.09375-0.14062-2.25-2.0625-6.4219-5.7656l-0.09375 0.09375c-62.859-56.625-107.16-130.82-127.18-213-0.14062-0.46875-0.5625-0.84375-1.0781-0.89062-7.5469-0.60938-15.188-0.75-22.781-0.42188-28.641 1.0312-57.188 4.125-85.359 9.375-1.7812 0.32812-3.5156 0.70312-5.2969 1.2188-0.23438 0.046875-0.42188 0.23438-0.51562 0.46875-0.09375 0.1875-0.09375 0.46875 0 0.70312 26.156 61.969 68.719 115.64 123.05 155.29 35.766 25.641 76.547 43.547 119.62 52.547 1.875 0.46875 3.75 0.79688 5.6719 0.98438 0.14062 0 0.28125-0.046875 0.32812-0.1875 0.09375-0.14062 0.09375-0.28125 0-0.42188zm487.4 0.65625-0.046875 0.046875c46.312-9.2812 89.953-28.781 127.78-57 17.156-12.609 33.141-26.719 47.766-42.188 29.953-32.062 54.047-69.141 71.203-109.5 0.14062-0.32812 0.14062-0.65625 0-0.9375-0.14062-0.32812-0.42188-0.51562-0.75-0.60938-36.656-7.6406-74.062-11.156-111.52-10.5-0.70312 0-1.3594 0.51562-1.5 1.2188-5.9531 24.281-13.828 48.047-23.531 71.109-18.938 44.625-45.984 85.359-79.734 120.19-9.4219 9.75-19.453 18.891-30 27.375-0.375 0.32812-0.09375 0.9375 0.375 0.84375zm-160.03 36.938-0.046875 0.046875c0.1875 0.14062 0.375 0.14062 0.5625 0.09375 121.92-33.797 216.71-129.79 248.95-252.1 0.046875-0.28125 0-0.60938-0.23438-0.84375-0.1875-0.23438-0.51562-0.32812-0.79688-0.28125-55.641 9.8438-107.48 34.688-150 71.859-12.094 10.734-23.344 22.312-33.656 34.734-0.46875 0.46875-0.75 1.0781-0.84375 1.7344-9.1406 52.734-31.172 102.33-64.078 144.52v0.14062c0 0.046875 0.046875 0.09375 0.09375 0.14062zm-168.37-0.375c-5.7188-7.5469-12.75-17.062-18.656-26.812l-0.046874 0.09375c-22.031-35.906-37.312-75.469-45.188-116.81-0.28125-1.4531-0.9375-2.8125-1.9219-3.9375-46.922-54.844-111.38-91.781-182.39-104.62-0.23438-0.046875-0.46875 0.046875-0.60938 0.23438-0.1875 0.14062-0.23438 0.375-0.14062 0.60938 9.1406 31.359 21.984 61.5 38.25 89.812 34.078 58.594 84.516 105.98 145.13 136.36 20.859 10.688 42.703 19.266 65.203 25.688 0.14062 0.046875 0.32812 0 0.42188-0.14062 0.046875-0.09375 0.046875-0.28125 0-0.42188zm40.922 49.641-0.046876 0.09375c-43.406-4.9688-85.594-17.484-124.64-37.078-0.70312-0.32812-5.1562-2.625-13.453-6.8906v-0.046875c-1.125-0.5625-2.3906-0.89062-3.7031-0.84375-20.156 0.09375-32.297-0.46875-46.594 0.9375-60.188 6-114.09 33.141-163.03 70.594-0.23438 0.23438-0.375 0.5625-0.32812 0.89062 0.046875 0.375 0.28125 0.65625 0.60938 0.75 35.672 13.406 72.938 21.984 110.91 25.594 28.922 2.8125 58.031 2.7656 86.953-0.1875 54.422-6.2344 106.78-24.281 153.42-52.922 0.375-0.1875 0.28125-0.75-0.1875-0.79688zm86.719 0.23438-0.046876 0.046875c-0.09375 0-0.1875 0.09375-0.23437 0.1875 0 0.09375 0.046874 0.1875 0.09375 0.28125 5.6719 3.9375 11.625 7.5 17.812 10.641 53.812 28.312 113.58 43.594 174.42 44.625 44.484 0.5625 88.781-5.8594 131.29-18.891 10.031-3.0938 18.844-6 26.391-8.6719 0.23438-0.09375 0.375-0.32812 0.32812-0.5625 0-0.1875-0.09375-0.375-0.14062-0.5625-0.09375-0.1875-0.23438-0.32812-0.375-0.46875-20.297-16.031-42.188-29.859-65.438-41.297-34.406-17.953-72.375-28.125-111.19-29.812-10.828-0.28125-21.656-0.375-32.391-0.32812v-0.046875c-0.98438 0.046875-1.9219 0.28125-2.8125 0.75-36.562 20.016-76.219 33.844-117.28 40.875-11.812 2.0625-18.609 3.1406-20.438 3.3281z"/>
</svg>
