<svg width="35" height="37" viewBox="0 0 35 37" fill="none" xmlns="http://www.w3.org/2000/svg">
<path d="M34.9818 12V12.12C34.9818 12.24 34.9818 12.36 34.9818 12.48C34.3818 12.96 34.6218 13.44 34.7418 13.92C34.9818 14.52 34.8618 15.12 34.6218 15.72C34.1418 16.56 33.7818 17.52 33.3018 18.36C33.0618 18.84 32.9418 19.32 32.3418 19.56C32.2218 19.68 32.1018 19.8 31.9818 19.92C31.9818 20.16 31.8618 20.28 31.7418 20.52C31.6218 20.64 31.5018 20.88 31.2618 21C30.6618 21.72 30.3018 22.8 29.8218 23.64C29.4618 24 29.3418 24.6 28.8618 24.96C28.5018 25.08 28.5018 25.56 28.5018 25.92C28.3818 26.16 28.3818 26.28 28.2618 26.4C27.6618 26.64 27.3018 27.12 26.9418 27.6C26.9418 27.84 26.8218 27.96 26.7018 28.08C26.3418 28.2 26.2218 28.56 25.9818 28.8C25.2618 29.4 24.5418 29.88 23.9418 30.48C23.8218 30.6 23.5818 30.6 23.3418 30.72C23.2218 30.72 23.1018 30.72 23.1018 30.72C22.8618 30.96 22.6218 31.2 22.3818 31.32C22.1418 31.44 22.0218 31.56 21.7818 31.68C21.3018 32.04 20.9418 32.52 20.5818 33C20.3418 33.36 19.8618 33.48 19.5018 33.6C18.7818 33.96 18.3018 34.56 17.5818 34.92C17.2218 35.16 16.9818 35.28 16.6218 35.52C16.2618 35.64 15.7818 35.76 15.4218 35.88C15.4218 35.88 15.4218 35.88 15.3018 35.88C15.0618 36.48 14.4618 36.12 13.9818 36.36C13.8618 36.36 13.6218 36.36 13.5018 36.48C12.9018 36.48 12.4218 36.48 11.9418 36.48C11.3418 36.36 10.8618 36.24 10.2618 36.24C10.1418 36.24 10.0218 36.12 9.90178 36C9.54178 35.76 9.18179 35.28 8.94179 34.92C8.82179 34.8 8.70177 34.56 8.58177 34.32C8.46177 34.08 8.46178 33.96 8.34178 33.72C8.22178 33.48 7.98178 33.36 7.74178 33.12C7.26178 32.52 7.38177 31.68 7.02177 30.96C6.90177 30.6 6.78176 30.12 6.54176 29.76C6.30176 29.28 6.18177 28.68 6.30177 28.08C6.30177 27.6 6.78177 27.24 7.26177 27C7.74177 26.88 8.22177 26.88 8.58177 27.12C9.18177 27.24 9.30176 27.72 9.54176 28.08C9.66176 28.32 9.66177 28.68 10.0218 28.8C10.1418 29.04 10.5018 29.4 10.5018 29.76C10.6218 30.36 10.8618 30.96 11.2218 31.44C11.3418 31.56 11.3418 31.68 11.4618 31.8C11.4618 31.92 11.5818 31.92 11.5818 32.04C11.7018 32.04 11.7018 32.04 11.7018 32.16C11.8218 32.16 11.8218 32.16 11.8218 32.04C12.0618 32.04 12.0618 32.04 12.0618 32.16C11.9418 32.28 12.0618 32.52 12.1818 32.4C12.3018 32.16 12.3018 32.28 12.4218 32.4H12.5418C12.6618 32.28 12.7818 32.28 12.9018 32.16C13.0218 32.16 13.0218 32.04 13.1418 32.16C13.7418 32.4 14.1018 32.04 14.5818 31.8C14.8218 31.56 15.1818 31.44 15.5418 31.32C15.9018 31.08 16.1418 30.96 16.5018 30.72C16.6218 30.48 16.8618 30.36 17.2218 30.36C17.3418 30.24 17.5818 29.88 17.7018 29.76C17.8218 29.64 18.0618 29.52 18.1818 29.52C18.6618 29.28 19.1418 29.04 19.3818 28.56C19.5018 28.2 19.9818 28.2 20.2218 27.84L20.4618 27.72V27.6C20.4618 27.48 20.4618 27.36 20.5818 27.36C21.1818 26.88 21.6618 26.16 22.1418 25.56C22.6218 24.84 23.2218 24.24 24.0618 23.76V23.52C24.1818 23.4 24.1818 23.16 24.4218 23.04C25.0218 22.44 25.5018 21.72 25.9818 20.88C26.5818 19.92 27.0618 18.84 27.9018 18C28.3818 17.52 28.6218 16.8 28.8618 16.2C28.9818 16.08 28.9818 15.96 29.1018 15.84C29.2218 15.72 29.4618 15.6 29.5818 15.6C29.5818 15.48 29.7018 15.36 29.7018 15.24V15.12C30.0618 15.12 29.9418 14.88 29.8218 14.76C29.8218 14.64 29.7018 14.52 29.8218 14.52C30.3018 14.4 30.0618 14.16 30.0618 13.92C30.0618 13.8 29.9418 13.56 30.1818 13.44C30.5418 13.08 30.1818 12.72 30.1818 12.36C30.0618 11.88 30.0618 11.16 29.7018 10.68C29.4618 10.2 29.2218 9.6 28.8618 9.12C28.7418 9 28.6218 8.88 28.5018 8.88C28.2618 9.00001 28.1418 8.88002 28.0218 8.64001C27.6618 8.52002 27.4218 8.64001 27.1818 8.64001C27.0618 8.64001 27.0618 8.64002 26.9418 8.52002C26.7018 8.40002 26.4618 8.40002 26.2218 8.52002C26.1018 8.52002 25.9818 8.52002 25.8618 8.64001C25.7418 8.64001 25.6218 8.76001 25.5018 8.88C25.2618 9.00001 24.7818 9.11998 24.4218 9.35999C23.9418 9.71998 23.7018 10.32 23.2218 10.68C23.1018 10.8 23.1018 10.92 22.9818 11.04C22.8618 11.28 22.6218 11.4 22.5018 11.64C22.2618 12 21.9018 12.48 21.6618 12.72C21.3018 13.2 20.9418 13.44 20.8218 14.04C20.5818 14.64 20.2218 15 19.9818 15.24C19.6218 15.48 19.3818 15.6 19.0218 15.84C18.6618 16.08 18.3018 16.44 17.7018 16.56C17.2218 16.68 16.5018 16.44 16.1418 16.2C15.9018 16.08 15.6618 15.96 15.4218 15.72C15.1818 15.48 14.8218 15.24 14.5818 14.76C14.4618 14.64 14.2218 14.52 14.4618 14.04L14.3418 13.8C14.2218 13.56 14.1018 13.2 13.9818 12.84C13.9818 12.72 13.8618 12.6 13.8618 12.6C13.6218 12.48 13.5018 12 13.5018 11.52C13.5018 10.8 13.2618 10.32 13.0218 9.60004V9.35999L12.9018 9V8.76001C12.7818 8.52001 12.7818 8.27998 12.6618 8.03998C12.4218 7.43998 12.1818 6.83998 11.7018 6.47998C11.5818 6.35998 11.7018 6.12 11.4618 6.12C11.2218 6.12 11.2218 5.76001 11.1018 5.76001C10.8618 5.76001 10.7418 5.52002 10.5018 5.40002C9.90179 5.28002 9.30178 5.16003 8.46178 5.16003C7.98178 5.16003 7.62177 5.16003 7.14177 5.16003C7.02177 5.28003 6.90178 5.28003 6.78178 5.28003C6.78178 5.28003 6.78179 5.28003 6.66179 5.28003C6.66179 5.40003 6.66179 5.52002 6.66179 5.52002C6.54179 6.00002 6.18179 6.36003 5.82179 6.84003C5.70179 6.96003 5.70177 6.96002 5.58177 7.08002C5.58177 7.32002 5.58178 7.55999 5.46178 7.79999C5.46178 8.03999 5.46178 8.28002 5.46178 8.52002C5.46178 8.76002 5.22179 8.99999 5.22179 9.35999C5.34179 9.47998 5.34179 9.72003 5.10179 9.84003C4.74179 10.08 4.98179 10.44 5.10179 10.8C5.22179 11.88 5.10178 12.96 5.34178 14.04C5.34178 14.28 5.22179 14.52 5.22179 14.76C5.22179 15 5.22178 15.24 5.34178 15.48C5.58178 16.08 5.82177 16.56 5.58177 17.16C5.46177 17.64 5.82179 18 5.82179 18.48C5.82179 18.84 5.94179 19.2 5.94179 19.56C5.82179 19.68 5.94179 19.68 5.94179 19.8C6.06179 20.4 6.42178 21 6.18178 21.72C6.18178 22.08 6.54176 22.2 6.54176 22.56C6.78176 23.64 7.02177 24.72 7.26177 25.8C7.26177 26.04 7.26177 26.4 7.26177 26.64C7.14177 27 6.90177 27.24 6.30177 27.36C5.70177 27.72 5.34179 27.36 5.10179 27.12C4.86179 26.64 4.02177 26.28 4.26177 25.56C4.26177 25.56 4.26177 25.44 4.14177 25.44C3.18177 24.6 3.06178 23.4 2.46178 22.44C2.34178 22.32 2.22179 22.08 2.22179 21.96C2.22179 21.36 1.62178 21 1.62178 20.52C1.50178 20.16 1.38179 19.68 1.38179 19.32C1.38179 18.84 0.90178 18.36 0.90178 17.76C0.90178 17.4 0.421789 17.16 0.66179 16.68C0.181789 16.44 0.901774 15.96 0.301774 15.72V15.6C0.661774 14.88 0.0617788 14.28 0.181779 13.56C0.301779 13.44 0.301774 13.32 0.301774 13.32C-0.298227 12.84 0.181779 12.24 0.181779 11.76C0.181779 11.16 0.181779 10.68 0.181779 10.08C0.181779 8.76002 0.301785 7.44 0.781785 6.12C1.02178 5.76 1.14176 5.39998 1.26177 5.03998C1.50176 4.67998 1.62177 4.20003 1.86177 3.84003V3.72003C2.22177 3.48003 2.58176 3.24001 2.82176 2.88C3.18176 2.64001 3.42178 2.27998 3.78178 2.03998V1.91998C4.14178 1.43998 4.74179 1.20002 5.10179 1.08002C5.70179 0.840017 6.18176 0.719981 6.54176 0.47998C7.26176 0.119982 7.86178 0.120002 8.46178 0L9.30177 0.119995C9.66177 0.119995 9.90177 0.119995 10.2618 0.119995C10.5018 0.119995 10.7418 0.23999 11.1018 0.23999C11.5818 0.359989 12.3018 0.240027 12.6618 0.840027C12.7818 0.960029 13.0218 1.08002 13.1418 1.08002C13.8618 1.32002 14.5818 1.67998 15.0618 2.03998C15.6618 2.51998 16.0218 3.12004 16.5018 3.60004C17.1018 4.44004 17.2218 5.28 17.3418 6C17.4618 6.72 17.8218 7.19999 17.9418 7.79999L18.0618 8.03998C18.0618 8.15998 17.9418 8.16003 17.9418 8.28003C18.1818 8.28003 18.3018 8.16003 18.1818 8.28003C18.1818 8.52003 18.3018 8.52003 18.4218 8.28003C18.4218 8.04003 18.4218 7.91998 18.4218 7.91998V8.03998H18.5418H18.6618L18.7818 7.91998C18.9018 7.67998 19.0218 7.56 19.2618 7.32001C19.7418 6.84001 20.3418 6.24001 21.0618 5.76001C22.1418 5.04001 23.2218 4.20001 24.7818 4.20001C25.1418 4.20001 25.3818 4.08002 25.6218 3.96002C26.4618 3.72003 27.3018 3.72002 28.1418 4.08002C28.6218 4.32002 29.2218 4.32 29.8218 4.56C30.4218 4.79999 30.7818 5.16002 30.9018 5.64001C31.3818 5.88002 31.6218 6.23998 32.1018 6.47998C32.5818 6.59998 32.5818 7.08 32.9418 7.44C33.6618 8.4 34.3818 9.36 34.6218 10.44C34.6218 10.92 34.8618 11.52 34.9818 12Z" fill="#332A24"/>
</svg>
