<svg width="252" height="149" viewBox="0 0 252 149" preserveAspectRatio="none" fill="none" xmlns="http://www.w3.org/2000/svg">
<path d="M251.599 74.8V74.92C251.599 75.4 251.479 75.88 251.719 76.36C251.599 76.96 251.719 77.68 251.479 78.28C251.359 78.88 251.239 79.48 251.119 79.96C250.999 80.56 250.879 81.16 250.879 81.64C250.759 82.24 250.639 82.84 250.759 83.56C250.879 84.16 250.639 84.76 250.279 85.36C249.919 86.2 249.559 86.8 249.559 87.76C249.559 88.6 248.959 89.32 248.719 90.16C248.359 90.64 248.239 91.24 247.999 91.84C247.999 91.96 247.999 92.2 247.759 92.32C246.919 92.92 246.679 94 246.319 94.84C246.199 95.2 245.959 95.56 245.839 95.92L245.239 96.76C244.879 97.36 244.519 98.08 244.159 98.68C244.039 99.16 243.799 99.64 243.319 100C243.079 100.24 242.959 100.84 242.599 101.32C242.479 101.56 242.359 101.8 242.119 102.04C241.759 102.28 241.399 102.64 241.159 103C240.919 103.36 240.679 103.84 240.439 104.2C240.199 104.8 239.599 105.16 239.119 105.64L238.879 106C238.879 106.12 238.879 106.12 238.879 106.24C238.879 106.36 238.759 106.6 238.639 106.72C237.679 107.68 236.839 108.76 235.999 109.96C235.039 111.04 233.959 112.24 232.759 112.96C232.639 113.08 232.639 113.2 232.519 113.32C232.399 113.56 232.159 113.92 231.919 114.16C231.319 114.52 230.719 115 230.239 115.6C229.639 116.08 229.159 116.56 228.559 117.16C227.119 118.48 225.679 119.92 223.999 120.88C223.039 121.48 222.199 122.32 221.359 123.04C220.879 123.52 220.399 123.64 219.799 123.64C219.679 123.88 219.319 124.12 219.199 124.24C219.079 124.36 218.959 124.48 218.839 124.6C218.239 124.48 218.119 124.84 217.879 125.2C217.759 125.44 217.399 125.68 217.279 125.68C216.559 125.56 216.199 126.04 215.719 126.4C215.359 126.76 214.999 127.12 214.399 127.24C213.319 127.36 212.599 128.08 211.639 128.56C210.439 129.16 209.119 129.64 207.799 130.24C206.479 130.84 205.039 131.2 203.719 131.56C203.359 131.68 203.119 131.8 202.999 132.04C202.519 132.4 202.039 132.52 201.439 132.52C200.839 132.88 200.359 133.36 199.639 133.6C199.399 133.72 199.159 133.96 198.799 133.96C197.479 134.08 196.399 134.8 195.199 135.28C194.359 135.64 193.399 135.88 192.559 136.12C191.479 136.36 190.519 136.96 189.319 137.32C188.359 137.56 187.399 137.8 186.439 137.92C185.839 138.04 185.239 138.04 184.759 138.4C183.799 139.12 182.599 138.88 181.519 139.24C180.079 139.6 178.639 140.08 177.199 140.44C176.839 140.56 176.479 140.8 176.119 140.92C175.399 141.16 174.799 141.52 174.079 141.64C173.839 141.76 173.599 142.12 173.239 141.76H172.999C172.639 142 172.159 142 171.799 142.12C171.679 142.24 171.559 142.24 171.439 142.36C171.079 142.72 170.719 142.84 170.239 142.72C169.639 142.72 169.039 143.2 168.439 143.32C167.599 143.68 166.759 143.68 165.919 143.92C164.719 144.16 163.519 144.4 162.319 144.88C161.959 145.12 161.359 144.88 161.119 145C160.639 145.24 160.159 145.12 159.799 145.36C159.199 145.6 158.599 145.48 157.999 145.6C157.279 145.84 156.559 145.96 155.839 146.08C154.999 146.2 154.279 146.32 153.559 146.44C152.359 146.56 151.279 146.68 150.199 146.56C149.839 146.68 149.479 146.68 149.119 146.68H148.999C148.759 146.68 148.639 146.8 148.399 146.92C147.199 147.4 145.879 147.4 144.679 147.28C144.559 147.28 144.319 147.28 144.199 147.28L141.439 147.88C140.959 148 140.479 147.76 139.999 147.88C139.639 148 139.399 148.12 139.039 147.76C138.679 147.52 138.079 147.88 137.599 148C135.799 148.36 133.879 148.12 132.079 148.48C131.719 148.48 131.359 148.48 130.999 148.36C130.519 148.36 130.159 148.36 129.799 148.48C128.959 148.6 127.999 148.84 127.159 148.6C126.439 148.24 125.719 148.6 124.999 148.48C124.519 148.48 123.919 148.48 123.439 148.36C123.199 148.36 123.079 148.48 122.959 148.36C121.999 148.36 120.919 148.6 119.839 148.24C119.479 148 118.999 148.36 118.519 148.36C116.719 148.12 115.039 148 113.239 147.76C112.999 147.76 112.759 147.64 112.519 147.64C112.399 147.52 112.159 147.52 112.039 147.52C111.319 147.28 110.719 147.04 109.879 147.28C109.159 147.52 108.319 147.4 107.599 147.28C107.119 147.16 106.519 147.16 106.039 147.16C105.799 147.16 105.679 147.28 105.559 147.16C104.719 146.56 103.759 146.68 102.919 146.68C101.599 146.68 100.279 146.32 98.9592 146.32C98.4792 146.32 97.9992 146.32 97.5191 146.08C97.2792 145.96 96.6791 146.2 96.1991 146.2C95.8391 146.08 95.5991 146.08 95.3591 145.96C94.5191 145.6 93.7992 145.48 92.8392 145.6C92.2392 145.72 91.7591 145.36 91.1591 145.24H90.7991C90.6792 145.24 90.5591 145.24 90.5591 145.24C90.4391 145.36 90.1991 145.36 90.0791 145.36C88.7591 145 87.4391 145 86.1191 144.76C84.7991 144.64 83.3591 144.52 82.0391 143.92H81.7991C81.4391 143.92 81.0791 143.92 80.8391 143.8C79.3991 143.44 78.0791 143.2 76.6391 142.96C74.7191 142.72 72.9191 142.36 71.1191 141.76C70.0391 141.28 68.9591 141.16 67.8791 141.04C67.2791 140.92 66.9191 140.68 66.5591 140.32C66.1991 140.2 65.9591 140.2 65.5991 140.08C65.4791 140.08 65.3591 140.08 65.2392 140.08C64.9991 139.6 64.5191 139.6 64.1591 139.72C63.9191 139.72 63.5592 139.72 63.4391 139.48C63.0792 139 62.4791 139 61.9991 138.88C61.3991 138.76 60.9191 138.76 60.5591 138.4C59.7191 137.68 58.7591 137.56 57.9191 137.2C56.5991 136.6 55.3991 135.88 54.1991 135.4C52.8791 134.8 51.6791 133.96 50.4791 133.12C50.2391 133 49.9991 132.88 49.7591 132.88C49.1591 132.76 48.6791 132.52 48.3191 132.16C47.7191 131.92 47.1191 131.68 46.3991 131.44C46.1591 131.32 45.7991 131.2 45.5591 130.96C44.5991 130.12 43.3991 129.64 42.1991 129.04C41.8391 128.92 41.4791 128.68 41.1191 128.44C40.7591 128.2 40.3991 127.96 40.0391 127.6C39.0791 127 37.9991 126.64 37.0391 125.92C36.3191 125.32 35.4791 124.72 34.7591 124.12C34.2791 123.64 33.9191 123.28 33.4391 123.04C32.2391 122.8 31.5191 121.72 30.6791 121C29.4791 120.16 28.2791 119.32 27.0791 118.24C26.7191 118.12 26.3591 118 25.9991 117.76C25.3991 117.4 24.7991 117.04 24.3191 116.56C24.0791 116.44 23.5991 116.32 23.7191 115.96L23.4791 115.72C23.2391 115.48 22.8791 115.24 22.5191 114.88C22.3991 114.88 22.2791 114.76 22.0391 114.76C21.6791 114.76 21.3191 114.4 21.0791 114.04C20.8391 113.44 20.1191 113.2 19.6391 112.84C18.9191 112.36 18.4391 111.64 17.8391 111.04C16.8791 110.08 16.0391 109.12 14.9591 108.4C14.5991 108.16 14.4791 107.56 14.2391 107.44C13.7591 107.08 13.6391 106.6 13.2791 106.36C12.7991 106 12.5591 105.4 12.1991 105.04C11.7191 104.44 11.1191 103.72 10.6391 103.12C10.1591 102.52 9.79914 101.92 9.31914 101.2C8.71914 100.24 8.11914 99.28 7.75914 98.2C7.51914 97.84 7.39915 97.6 7.27914 97.12L7.15915 97C7.03915 96.88 6.91915 96.76 6.79915 96.64C6.31915 96.16 5.95914 95.56 5.59914 94.96C5.35914 94.36 5.11915 93.76 4.99915 93.16C4.87915 92.92 4.87914 92.8 4.75914 92.68C4.39914 91.84 3.79915 91 3.43915 90.16C3.19915 89.68 3.31914 89.08 2.95914 88.72C2.83914 88.36 2.59914 88.12 2.83914 87.64C2.95914 87.28 2.47914 86.68 2.23914 86.2C1.87914 85.36 1.63914 84.4 1.39914 83.56C1.15914 82.6 1.03915 81.64 0.799149 80.68C0.679149 80.32 0.679139 79.96 0.679139 79.48C0.679139 79.12 0.559149 78.76 0.439148 78.28C0.199148 77.44 -0.160852 76.36 0.0791477 75.52C0.439148 74.68 0.079143 74.08 0.199143 73.36C0.199143 72.76 0.079143 72.16 0.199143 71.56C0.319143 71.44 0.199143 71.32 0.199143 71.2C0.319143 70.12 0.0791386 69.04 0.679139 67.96C0.799139 67.6 0.559139 67 0.679139 66.52L1.27914 63.88C1.51914 63.04 1.75915 62.2 1.99915 61.24C2.11915 60.88 2.35914 60.52 2.59914 60.28C2.71914 60.16 2.71915 60.16 2.71915 60.04C2.95915 59.44 3.19914 58.84 3.31914 58.12C3.43914 57.64 3.55915 57.28 3.79915 56.8C4.03915 56.44 4.03914 55.84 4.15913 55.48C4.27913 55.12 4.39915 54.88 4.51915 54.64C4.99915 53.92 5.35914 53.2 5.59914 52.24C5.71914 51.76 6.19915 51.28 6.43915 50.68L6.67914 50.44C6.67914 50.32 6.67914 50.2 6.67914 50.2C6.67914 49.96 6.67914 49.84 6.67914 49.72C7.51914 48.64 7.99914 47.32 8.59914 46.12C9.31914 44.92 10.0391 43.72 11.1191 42.76L11.2391 42.4C11.3591 42.16 11.4791 41.8 11.7191 41.56C12.1991 41.08 12.6791 40.48 13.0391 40C13.5191 39.4 13.9991 38.8 14.3591 38.2C14.9591 37.48 15.5591 36.64 16.1591 35.92C16.7591 35.32 17.4791 34.6 18.1991 34C19.0391 33.28 19.7591 32.44 20.4791 31.6C20.8391 31.12 21.3191 30.88 21.7991 30.88C22.0391 30.64 22.2791 30.4 22.3991 30.16C22.5191 30.04 22.6391 29.92 22.7591 29.8C23.2391 29.92 23.3591 29.56 23.5991 29.08C23.7191 28.96 23.9591 28.72 24.0791 28.72C24.7991 28.6 25.0391 28.12 25.3991 27.76C25.7591 27.28 26.1191 27.04 26.7191 26.92C27.6791 26.56 28.2791 25.84 29.1191 25.24C30.3191 24.52 31.5191 24.04 32.7191 23.32C32.9591 23.08 33.3191 22.96 33.5591 22.72C33.9191 22.6 34.2791 22.48 34.6391 22.36L36.5591 21.52C36.7991 21.52 37.0391 21.28 37.2791 21.16C37.6391 20.68 38.1191 20.44 38.5991 20.44C39.1991 20.08 39.6791 19.6 40.2791 19.36C40.5191 19.12 40.7591 19 41.1191 18.88C42.3191 18.52 43.3991 17.8 44.4791 17.32C45.3191 16.84 46.1591 16.6 46.8792 16.24C47.9592 16 48.9191 15.28 49.9991 14.92C50.8391 14.56 51.7991 14.2 52.7591 14.08C53.3591 13.96 53.8391 13.96 54.3191 13.6C55.2791 12.76 56.3591 12.76 57.4391 12.52C58.8791 12.04 60.1991 11.44 61.6391 10.96C61.8791 10.84 62.2391 10.6 62.5992 10.48C63.1992 10.12 63.7992 9.87999 64.5191 9.63998C64.7592 9.51998 64.9991 9.15999 65.2392 9.39999H65.4791C65.9591 9.27999 66.3192 9.03998 66.7991 9.03998C66.7991 8.91998 66.9191 8.8 67.0391 8.67999C67.2791 8.43999 67.7591 8.19998 68.1191 8.19998C68.8391 8.19998 69.3191 7.83998 69.9191 7.59997C70.6391 7.23998 71.4791 7.12001 72.3191 6.88C73.5191 6.52 74.7191 6.27999 75.7991 5.67999C76.1591 5.43999 76.6391 5.68 76.9991 5.44C77.3591 5.2 77.8391 5.31998 78.3191 5.07998C78.7991 4.83998 79.3991 4.84 79.8792 4.72C81.3192 4.36 82.7591 3.99997 84.3191 3.75998C85.3991 3.51997 86.3591 3.27999 87.5591 3.39999C87.7991 3.27999 88.1591 3.15999 88.6391 3.28H88.7591C88.8791 3.15999 89.1192 3.03998 89.2392 3.03998C90.4391 2.43998 91.6391 2.31997 92.9592 2.31997C93.0792 2.31997 93.1991 2.31997 93.3191 2.31997L95.9592 1.6C96.4392 1.48 96.9192 1.72 97.3992 1.6C97.7592 1.48 97.9992 1.24 98.3591 1.6C98.7191 1.84 99.3191 1.47998 99.7991 1.35998C101.599 0.879982 103.399 0.999984 105.079 0.639982C105.439 0.519983 105.799 0.519983 106.279 0.639982C106.639 0.639982 106.999 0.519986 107.479 0.519986C108.199 0.279982 109.159 -0.0799991 109.999 0.279996C110.719 0.52 111.319 0.160001 112.039 0.160001C112.519 0.160001 113.119 0.160001 113.719 0.160001C113.839 0.28 113.959 0.160001 114.079 0.160001C115.039 0.160001 115.999 -0.200001 117.079 0.160001C117.439 0.399998 117.919 -0.080023 118.399 0.0399755L123.559 0.279996C123.799 0.279996 124.039 0.279993 124.279 0.399991C124.519 0.399991 124.639 0.399981 124.759 0.519986C125.479 0.639985 126.079 0.759983 126.919 0.519986C127.519 0.279982 128.359 0.399981 129.079 0.519986C129.559 0.519986 130.159 0.399991 130.639 0.399991C130.759 0.399991 130.999 0.399991 131.119 0.399991C131.959 0.999998 132.919 0.759977 133.759 0.759977C135.079 0.639978 136.279 0.879975 137.599 0.759977C138.079 0.759977 138.439 0.759993 138.919 0.999997C139.279 0.999997 139.879 0.879972 140.239 0.879972C140.599 0.879972 140.839 0.879992 141.079 0.999997C141.919 1.23999 142.759 1.23999 143.599 1.11999C144.079 0.999994 144.679 1.35998 145.279 1.35998L145.639 1.47998C145.639 1.35998 145.759 1.35998 145.879 1.35998C145.999 1.23998 146.119 1.23999 146.359 1.23999C147.559 1.47998 148.879 1.47998 150.079 1.47998C151.519 1.59998 152.839 1.59998 154.159 2.19998L154.519 2.07998C154.759 2.07998 155.119 2.07998 155.359 2.07998C156.799 2.43999 158.119 2.55998 159.439 2.67999C161.359 2.79999 163.159 2.91999 164.959 3.51999C165.919 3.87999 166.999 3.88 168.079 4C168.679 4 169.159 4.24 169.399 4.6C169.759 4.6 169.999 4.72 170.359 4.72C170.479 4.72 170.599 4.72 170.719 4.72C171.079 5.2 171.439 5.07999 171.799 4.95999C172.039 4.95999 172.399 4.95999 172.399 5.07998C172.879 5.67998 173.479 5.56 173.959 5.56C174.439 5.67999 174.919 5.68 175.399 6.04001C176.239 6.64001 177.199 6.64 178.039 7C179.359 7.36 180.439 8.08 181.759 8.44C183.079 8.92 184.279 9.63998 185.479 10.36C185.719 10.48 185.959 10.48 186.319 10.48C186.799 10.48 187.279 10.84 187.639 11.2C188.239 11.32 188.959 11.44 189.559 11.68C189.799 11.8 190.159 11.8 190.399 12.04C191.359 12.76 192.559 13 193.759 13.48C194.479 13.84 195.319 14.32 196.039 14.68C196.999 15.28 198.079 15.52 198.919 16.12C199.759 16.6 200.719 17.08 201.439 17.68C201.799 18.04 202.159 18.4 202.759 18.52C203.959 18.76 204.679 19.6 205.519 20.2C206.839 20.92 208.039 21.64 209.239 22.36C209.599 22.48 209.959 22.72 210.319 22.84C210.919 23.08 211.519 23.32 212.119 23.68C212.359 23.8 212.719 23.8 212.719 24.28L212.959 24.4C213.319 24.64 213.679 24.88 214.039 25.12C214.159 25.12 214.279 25.12 214.399 25.12C214.759 25.12 215.119 25.36 215.359 25.72C215.839 26.2 216.439 26.44 217.039 26.68C217.639 27.04 218.239 27.76 218.959 28.24L220.399 29.2C220.879 29.56 221.359 29.92 221.839 30.16C222.319 30.4 222.439 31 222.679 31C223.159 31.24 223.399 31.72 223.759 31.84C224.359 32.08 224.599 32.68 224.959 33.04C226.039 34 227.239 34.96 228.199 36.04C228.799 36.88 229.639 37.6 230.119 38.56C230.359 38.8 230.599 39.04 230.719 39.4V39.52C230.959 39.64 231.079 39.76 231.199 39.88C231.799 40.24 232.279 40.6 232.639 41.08C232.999 41.56 233.239 42.16 233.479 42.64C233.599 42.76 233.719 42.88 233.719 43C234.319 43.72 234.919 44.32 235.519 45.04C235.759 45.4 235.759 45.88 236.119 46.24C236.359 46.48 236.599 46.6 236.479 47.2C236.479 47.56 237.079 47.92 237.319 48.28C237.799 49 238.159 49.84 238.639 50.56C238.999 51.28 239.359 52.12 239.719 52.84C239.959 53.2 240.079 53.56 240.079 53.92C240.199 54.28 240.319 54.64 240.559 55C241.039 55.72 241.519 56.44 241.519 57.28C241.399 58 241.879 58.6 241.999 59.2C241.999 59.68 242.239 60.16 242.239 60.76C242.239 60.88 242.359 61 242.359 61.12C242.599 62.08 242.959 62.92 242.719 64C242.719 64.36 243.079 64.72 243.079 65.2C243.079 66.04 243.199 66.88 243.199 67.72C243.199 68.08 243.199 68.44 243.199 68.92L243.079 70.12C243.079 70.48 242.959 70.84 242.839 71.2C242.599 71.56 242.239 71.8 241.639 71.68C240.799 71.8 240.559 71.2 240.439 70.84C240.319 70.12 239.599 69.52 239.959 68.68C239.959 68.56 239.959 68.44 239.959 68.44C239.479 67.84 239.239 67.12 238.999 66.52L238.759 65.44C238.639 65.08 238.519 64.84 238.279 64.48C238.159 64.24 238.159 64 238.159 63.76C238.159 63.4 238.039 63.16 237.799 62.8C237.679 62.56 237.439 62.32 237.439 61.96C237.319 61.6 237.079 61.12 236.959 60.64C236.959 59.92 236.479 59.44 236.239 58.84C236.119 58.48 235.519 58.12 235.759 57.64C235.039 57.52 235.759 56.56 235.039 56.44C235.159 55.48 234.199 55 234.079 54.16C234.079 54.04 234.079 53.92 233.959 53.8C233.239 53.56 233.359 52.84 233.119 52.24C232.879 51.76 232.399 51.16 232.159 50.56C231.679 49.96 231.319 49.48 230.839 48.88C230.479 48.16 230.119 47.56 229.759 46.96C229.399 46.24 228.919 45.64 228.319 45.04C228.199 44.2 227.719 43.6 227.119 43.12V43C226.279 42.52 226.159 41.56 225.199 41.08C224.119 40.6 223.639 39.52 222.559 38.8C222.439 38.68 222.199 38.44 222.079 38.2C221.599 37.96 220.999 37.84 220.999 37.12C220.879 37 220.759 36.88 220.639 36.76C219.439 36.28 218.479 35.56 217.519 34.84C216.919 34.24 216.319 33.64 215.839 33.04C215.359 32.56 214.639 32.32 214.039 31.84C213.679 31.6 213.439 31.36 213.079 31.12L211.999 30.16C211.279 29.8 210.319 29.32 209.359 28.72C208.399 28.24 207.679 27.76 207.439 27.52C207.079 27.28 206.719 27.04 206.239 26.8C205.759 26.44 205.159 26.2 204.559 25.96C203.479 25.48 202.519 25 202.159 24.76C201.079 24.28 200.119 23.68 199.039 23.08C198.079 22.48 196.999 21.88 196.039 21.28C195.319 20.8 194.599 20.32 193.879 19.84C192.679 19.12 191.239 18.76 190.279 17.68C190.039 17.44 189.679 17.32 189.439 17.32C188.599 17.2 187.879 16.84 187.279 16.36C186.799 15.88 186.079 15.88 185.599 15.76C184.999 15.52 184.399 15.16 184.159 14.68C183.679 14.44 183.199 14.32 182.599 14.32C182.119 14.32 181.759 13.84 181.279 13.6C179.959 13.12 178.519 13 177.199 12.4C176.719 12.16 176.119 12.04 175.519 11.8C175.279 11.8 175.159 11.8 175.039 11.56C174.679 10.84 173.959 10.96 173.359 10.96C172.639 10.96 171.919 10.72 171.319 10.48C170.119 9.99998 168.919 9.75998 167.599 9.63998C166.879 9.51998 166.159 9.51998 165.559 8.91998C165.439 8.79998 165.199 8.67999 165.079 8.67999C164.719 8.67999 164.359 8.67999 164.119 8.55999C163.759 8.55999 163.399 8.56 163.039 8.44C161.719 7.96 160.279 8.07999 158.959 7.95999C158.119 7.83999 157.279 7.95998 156.559 7.59997C156.079 7.35998 155.599 7.72 155.119 7.83999C154.879 7.83999 154.639 7.95999 154.399 7.83999C153.679 7.35999 152.839 7.35998 151.999 7.35998C151.759 7.35998 151.519 7.35998 151.279 7.35998C150.799 7.11999 150.319 7.23999 149.839 7.11999L148.159 6.75998C147.559 6.63998 146.959 6.51999 146.359 6.51999C145.999 6.51999 145.759 6.28 145.519 6.16C145.399 6.16 145.279 6.03999 145.159 5.91998C144.679 5.91998 144.319 5.91998 143.839 5.79999C143.599 5.67999 143.239 5.67999 142.999 5.67999C142.159 5.55999 141.319 5.67999 140.479 5.79999C139.879 5.91998 139.279 5.67999 138.799 5.56C137.719 5.31999 136.639 5.44 135.559 5.56C134.599 5.56 133.519 5.43998 132.439 5.31997H132.319C131.719 5.79998 131.119 5.31997 130.399 5.31997C129.079 5.31997 127.639 4.83999 126.319 5.44C126.199 5.44 125.959 5.44 125.839 5.44C124.759 5.2 123.799 5.07999 122.719 4.95999C122.359 4.95999 121.879 5.19998 121.519 5.31997C120.439 5.55998 119.479 5.07998 118.399 5.07998C117.799 5.19998 117.079 5.07998 116.479 5.19998C115.879 5.31998 115.159 5.31998 114.439 5.07998C114.319 5.19998 114.199 5.19998 113.959 5.19998C113.479 5.19998 112.879 5.31997 112.399 5.31997C111.559 5.19998 110.959 5.67999 110.119 5.67999C109.639 5.67999 109.159 6.15999 108.679 5.79999C108.319 6.39998 107.599 5.56 107.239 6.28H107.119C106.159 5.8 105.319 6.51999 104.359 6.39999C104.239 6.39999 104.119 6.27999 103.999 6.39999C103.399 6.99999 102.679 6.63998 102.079 6.63998C101.239 6.75998 100.519 6.88 99.7991 7C98.2391 7.36 96.6792 7.47997 95.1192 7.59997C94.2792 7.71998 93.3191 7.83999 92.4791 8.07998C91.6391 7.83999 90.7991 7.95999 90.0791 8.07998L89.9591 8.19998C88.9991 8.55997 88.0391 8.31998 87.1991 8.79998C85.9991 9.51998 84.7992 9.4 83.5992 9.88C83.3591 10 82.9991 9.99999 82.7591 10.12C82.1591 10.24 81.6791 10.72 81.0791 10.36C80.9591 10.36 80.7191 10.36 80.5991 10.48C79.5191 11.2 78.1991 11.44 76.9991 11.92C76.1591 12.16 75.3191 12.28 74.3591 12.28C73.6391 12.4 73.0391 12.76 72.3191 13C71.8391 13.12 71.4791 13.36 70.9991 13.36L69.5591 13.72C68.1191 14.44 65.2392 15.52 64.5191 15.64C64.1592 15.76 63.5591 15.88 63.0791 16.12C62.4791 16.36 61.8791 16.6 61.3991 16.84C60.1991 17.44 59.1191 17.92 58.7591 18.04C57.6791 18.52 56.4791 19 55.3991 19.36C54.7991 19.6 54.3191 19.72 53.7191 19.96C53.1191 20.2 52.6391 20.32 52.0391 20.56C51.1991 20.8 50.3591 21.04 49.3991 21.28C48.0791 21.76 46.8791 22.6 45.4391 22.6C45.0791 22.6 44.8392 22.84 44.5992 23.08C43.8792 23.56 43.1591 23.92 42.3191 24.04C41.7191 24.16 41.3591 24.64 40.7591 25C40.1591 25.24 39.6791 25.48 39.0791 25.36C38.5991 25.6 38.1191 25.96 37.7591 26.32C37.3991 26.68 36.7992 26.68 36.4391 27.04C35.2391 27.76 34.1591 28.6 32.8391 29.32C32.3591 29.56 31.8791 30.04 31.2791 30.4C31.1591 30.4 31.0391 30.64 30.9191 30.52C30.0791 30.4 29.7191 31 29.3591 31.48C28.8791 32.08 28.3991 32.44 27.6791 32.8C26.5991 33.52 25.6391 34.24 24.7991 35.2C24.3191 35.8 23.9591 36.4 23.1191 36.52C22.8791 36.52 22.6392 36.64 22.5191 36.88C22.3991 37.12 22.1591 37.36 21.9191 37.6C21.7991 37.84 21.5591 38.08 21.1991 38.32C20.7191 38.68 20.2391 39.28 19.7591 39.76C19.3991 40.36 19.0391 40.96 18.5591 41.44C18.1991 42.16 17.8391 42.76 17.1191 43.24C16.7591 43.6 16.7591 44.2 16.6391 44.68C16.5191 44.92 16.5191 45.04 16.2791 45.16C15.9191 45.4 15.5591 45.76 15.3191 46C15.0791 46.36 14.9591 46.72 14.7191 47.08C14.7191 47.32 14.5991 47.56 14.3591 47.68C13.9991 48.04 13.8791 48.52 13.6391 48.88C12.9191 49.72 12.1991 50.68 11.5991 51.64C11.4791 52 11.2391 52.12 10.9991 52.36C10.8791 52.36 10.7591 52.48 10.6391 52.6C10.5191 52.96 10.2791 53.32 10.0391 53.68C9.91914 53.92 9.79914 54.16 9.55914 54.4C9.19914 55.12 9.07914 55.96 8.95914 56.68C8.83914 57.28 8.47914 57.76 8.23914 58.24C7.75914 59.2 7.63914 60.16 7.39914 61.24C7.15914 62.2 7.03914 63.16 6.67914 64.12L6.55914 64.24C6.91914 64.96 6.31914 65.44 6.31914 66.04C6.19914 66.64 5.95914 67.36 5.83914 67.96C5.71914 68.68 5.71915 69.4 6.07915 70C6.07915 70.12 5.95914 70.36 5.95914 70.48C5.83914 70.96 5.71915 71.44 5.71915 71.92C5.59915 72.4 5.59914 73 5.59914 73.48C5.47914 73.84 5.71914 74.2 5.83914 74.56C5.95914 75.16 5.95914 75.76 5.95914 76.36C5.95914 76.36 5.95914 76.48 5.83914 76.6V76.84C6.31914 77.2 5.59914 77.92 6.19914 78.16C6.31914 78.16 6.31914 78.28 6.31914 78.28C5.83914 79.24 6.67914 79.96 6.67914 80.92C6.67914 81.04 6.55914 81.16 6.67914 81.28C7.03914 81.52 7.03915 81.88 7.15915 82.12C7.15915 82.48 7.15915 82.84 7.15915 83.08C7.39915 83.8 7.63914 84.52 7.87914 85.12C8.11914 85.84 8.47915 86.56 8.71915 87.28C8.95915 88 9.19915 88.84 9.43915 89.56C9.79915 90.28 10.1591 91.12 10.6391 91.84V91.96C10.5191 92.8 10.9991 93.52 11.4791 94.12V94.24C11.8391 94.6 12.0791 94.96 12.1991 95.44C12.4391 95.8 12.6791 96.28 13.0391 96.52C13.9991 97.36 14.4791 98.56 15.4391 99.4C15.5591 99.64 15.6791 99.88 15.9191 100.12C16.2791 100.6 16.8791 100.84 16.7591 101.56C16.7591 101.68 16.9991 101.8 17.1191 101.92C18.3191 102.52 19.0391 103.6 19.9991 104.44C20.5991 105.04 21.0791 105.76 21.5591 106.6C21.9191 107.2 22.6391 107.56 23.2391 108.04C23.4791 108.28 23.8391 108.52 24.0791 108.88L25.1591 110.08C25.7591 110.56 26.8391 111.16 27.6791 111.76C28.5191 112.48 29.2391 113.08 29.4791 113.32C30.0791 113.8 31.1591 114.64 32.2391 115.36C33.3191 115.96 34.2791 116.56 34.6391 116.8C35.1191 117.16 35.5991 117.52 36.0791 117.88C36.6791 118.24 37.1591 118.6 37.6391 118.84C38.7191 119.56 39.5591 120.28 40.5191 121C41.2392 121.6 41.9591 122.08 42.6791 122.68C43.7591 123.64 45.1992 124.12 46.1591 125.2C46.3991 125.56 46.7591 125.56 46.9991 125.68C47.8391 125.92 48.5591 126.28 49.1591 126.88C49.6392 127.36 50.2391 127.48 50.8391 127.72C51.4391 127.96 51.9191 128.32 52.1591 128.92C52.7591 129.16 53.2391 129.4 53.8391 129.4C54.3191 129.52 54.6791 130 55.1591 130.12C55.7591 130.48 56.4791 130.72 57.1991 130.96C57.7991 131.2 58.5191 131.44 59.1191 131.8C59.7191 132.04 60.3191 132.28 60.9191 132.52C61.0391 132.64 61.2791 132.64 61.2791 132.76C61.6391 133.6 62.3591 133.6 63.0791 133.6C63.7991 133.6 64.5191 133.84 65.1191 134.2C65.7191 134.44 66.3191 134.68 66.9191 134.92C67.5191 135.16 68.1191 135.28 68.7191 135.4C69.5591 135.52 70.2792 135.64 70.8792 136.24C70.9991 136.36 71.2391 136.48 71.3591 136.48C71.7191 136.48 72.0791 136.6 72.4391 136.72C72.6791 136.72 73.0391 136.84 73.3991 136.96C74.7191 137.44 76.1591 137.44 77.5992 137.68C78.4391 137.8 79.2791 137.8 79.9991 138.16C80.4791 138.4 80.9591 138.28 81.5591 138.16C81.7991 138.04 81.9192 138.04 82.1591 138.16C82.9992 138.64 83.8391 138.76 84.6792 138.76C84.9192 138.76 85.1591 138.76 85.3991 138.88C85.8791 139.12 86.3591 139 86.8391 139.12C87.4391 139.36 88.0391 139.48 88.6391 139.72C89.2391 139.84 89.8391 139.96 90.4391 139.96C90.6792 140.08 91.0392 140.32 91.2792 140.44C91.3992 140.44 91.5191 140.56 91.6391 140.68C91.9991 140.68 92.4792 140.8 92.9592 140.92C93.1991 141.04 93.5592 141.04 93.7991 141.16C94.6392 141.28 95.4791 141.28 96.3191 141.16C96.9191 141.16 97.5192 141.28 98.1192 141.52C99.1992 141.76 100.279 141.76 101.359 141.76C102.439 141.76 103.519 141.88 104.479 142.12C104.599 142.12 104.599 142.12 104.719 142.12C105.319 141.64 105.919 142.24 106.639 142.36C107.959 142.36 109.399 142.96 110.839 142.48C110.959 142.36 111.199 142.48 111.319 142.48C112.399 142.72 113.359 142.96 114.439 143.08C114.919 143.08 115.279 142.96 115.759 142.84C116.839 142.6 117.799 143.2 118.879 143.2C119.599 143.2 120.199 143.32 120.919 143.2C121.519 143.2 122.239 143.2 122.839 143.44C123.079 143.32 123.199 143.32 123.439 143.32C123.919 143.32 124.519 143.2 124.999 143.32C125.839 143.44 126.559 143.08 127.279 143.08C127.879 143.08 128.359 142.6 128.839 142.96C129.319 142.36 129.919 143.32 130.399 142.72C130.399 142.6 130.399 142.6 130.399 142.6C131.359 143.08 132.319 142.48 133.279 142.6C133.399 142.6 133.519 142.72 133.639 142.72C134.239 142 134.959 142.48 135.679 142.48C136.399 142.48 137.239 142.36 137.959 142.24C139.519 142 141.199 141.88 142.759 141.88C143.719 141.88 144.559 141.76 145.519 141.52C146.359 141.88 147.199 141.76 148.039 141.64H148.159C148.999 141.28 150.079 141.52 150.919 141.04C152.119 140.56 153.439 140.56 154.759 140.2C154.999 140.2 155.359 140.2 155.599 140.08C156.199 139.96 156.679 139.48 157.279 139.84C157.399 139.96 157.639 139.84 157.879 139.84C158.959 139.12 160.279 139 161.599 138.64C162.439 138.4 163.399 138.4 164.239 138.28C165.079 138.28 165.679 137.92 166.399 137.68C166.879 137.56 167.359 137.44 167.719 137.44L169.279 137.2C170.839 136.6 173.959 135.64 174.679 135.52C176.239 135.4 179.839 133.72 180.679 133.48C181.879 133.12 183.079 132.76 184.279 132.4C185.479 132.04 186.679 131.8 187.879 131.44C188.719 131.32 189.679 130.96 190.519 130.84C191.959 130.6 193.279 129.76 194.839 129.76C195.199 129.76 195.439 129.64 195.679 129.4C196.399 128.92 197.239 128.68 198.079 128.56C198.679 128.56 199.279 128.08 199.759 127.84C200.479 127.48 201.079 127.36 201.559 127.48C202.159 127.36 202.639 127.12 203.119 126.64C203.479 126.28 204.079 126.28 204.559 126.16C205.159 125.8 205.879 125.44 206.479 125.08C207.079 124.72 207.799 124.36 208.399 124.12C208.999 123.88 209.599 123.52 210.199 123.16C210.319 123.16 210.439 122.92 210.679 123.04C211.519 123.28 211.999 122.68 212.359 122.2C212.959 121.6 213.559 121.24 214.279 121C215.479 120.52 216.559 119.68 217.519 118.84C218.119 118.36 218.719 117.88 219.559 117.76C219.679 117.76 219.919 117.64 220.159 117.52C220.279 117.16 220.639 117.04 220.879 116.8C221.119 116.56 221.359 116.32 221.719 116.2C223.039 115.48 223.879 114.16 224.959 113.2C225.319 112.96 225.559 112.6 225.799 112.36C226.159 112 226.399 111.76 226.759 111.52C227.239 111.28 227.479 110.68 227.719 110.2C227.719 109.96 227.839 109.84 228.079 109.72C229.039 109.36 229.519 108.64 229.999 107.92C230.239 107.8 230.359 107.56 230.599 107.44C230.959 107.2 231.319 106.72 231.679 106.36C232.519 105.52 233.479 104.68 234.319 103.72C234.559 103.48 234.919 103.36 235.159 103.12C235.279 103.12 235.399 103 235.519 103C235.759 102.64 236.119 102.28 236.359 101.92C236.599 101.68 236.839 101.44 237.079 101.2C237.559 100.6 238.039 99.76 238.399 98.92C238.519 98.44 238.999 97.96 239.479 97.48C240.319 96.64 240.559 95.56 241.159 94.48C241.639 93.52 242.119 92.56 242.719 91.6C242.719 91.6 242.839 91.6 242.839 91.48C242.599 90.64 243.439 90.28 243.679 89.68C243.919 88.96 244.279 88.36 244.639 87.64C244.879 87.28 244.999 87.04 245.119 86.68C245.119 86.2 245.119 85.84 245.119 85.48C245.119 85.36 245.239 85.12 245.359 85C245.839 84.04 246.319 82.96 246.679 81.88C246.799 81.52 246.679 81.04 246.679 80.56C246.679 79.96 246.919 79.48 247.039 79C247.279 78.4 247.399 77.92 247.519 77.32C247.639 76.6 247.879 76 247.759 75.28C247.759 74.32 247.879 73.48 248.359 72.64C248.599 71.92 249.199 71.68 249.799 71.68C250.279 71.68 250.879 72.04 251.239 72.64C251.719 73.24 251.599 74.08 251.599 74.8Z" fill="#332A24"/>
</svg>
