<svg width="42" height="42" viewBox="0 0 42 42" fill="none" xmlns="http://www.w3.org/2000/svg">
<path d="M41.208 10.68V10.8C41.448 11.04 41.568 11.52 41.568 11.76C41.568 11.88 41.568 12 41.568 12.12L41.328 12.48C41.088 13.08 40.848 13.56 40.608 14.16C40.368 14.76 40.008 15.36 39.528 15.96L37.488 17.76C37.248 18 37.008 18.24 36.888 18.48C36.648 19.08 35.928 19.56 35.448 19.92L34.608 20.88L34.248 21.36C34.128 21.48 34.128 21.48 34.128 21.48V21.6C34.008 21.6 34.128 21.72 33.888 21.72C33.768 21.72 33.648 21.84 33.528 21.84C33.528 21.96 33.528 22.08 33.528 22.08C33.648 22.32 33.768 22.44 33.768 22.68L34.008 23.04L34.128 23.52C34.248 23.88 34.368 24.24 34.368 24.6C34.488 25.08 34.728 25.44 34.968 25.92C35.208 26.28 35.328 26.64 35.568 27.36C35.928 28.56 36.408 29.76 36.648 30.84C36.768 31.44 36.888 31.92 37.248 32.52C37.608 33.24 37.608 33.72 37.608 34.08L37.488 34.68C37.488 34.8 37.488 34.92 37.488 35.16C37.488 35.28 37.488 35.4 37.488 35.52C37.488 35.64 37.488 35.76 37.368 35.88C37.248 36.24 36.888 36.48 36.528 36.6C36.288 36.72 36.048 36.6 35.808 36.6C35.568 36.48 35.328 36.48 34.968 36.36C34.728 36.36 34.488 36.36 34.248 36.36C33.768 36.36 33.288 36.36 32.688 36.12L32.208 35.88C31.968 35.76 31.608 35.76 31.368 35.28L31.008 35.16C30.528 34.92 30.048 34.68 29.568 34.44C29.448 34.44 29.328 34.44 29.208 34.44C28.728 34.44 28.248 34.2 27.768 33.84C27.408 33.48 26.808 33.36 26.328 33.24C25.728 33 25.128 32.52 24.528 32.28L23.928 32.04L23.688 31.92C23.448 31.8 23.208 31.8 23.088 31.92C22.968 31.92 22.728 31.8 22.728 31.92C22.728 32.28 22.488 32.16 22.488 32.4C22.488 32.52 22.368 32.52 22.368 32.64C22.128 32.76 22.008 32.88 21.888 33.12L21.288 33.84L20.448 34.92C19.728 35.76 19.128 36.48 18.408 37.2C17.928 37.8 17.568 38.28 17.088 38.88C16.608 39.36 16.128 39.84 15.768 39.96C15.528 40.2 15.168 40.44 14.928 40.44C14.808 40.56 14.688 40.8 14.568 40.92C14.328 41.16 14.088 41.28 13.848 41.52C13.728 41.64 13.488 41.76 13.368 41.76C13.248 41.88 13.008 41.88 12.888 42C12.768 42 12.648 42 12.408 42C12.288 41.88 12.168 41.88 12.048 41.88C11.568 41.76 11.208 41.4 11.088 41.28C10.968 40.92 10.848 40.68 10.848 40.32C10.728 40.08 10.848 39.36 10.728 39.12C10.608 39 10.488 38.88 10.728 38.28C10.968 37.68 10.608 37.56 10.488 37.2C10.488 37.08 10.488 36.96 10.488 36.84C10.488 35.88 10.608 34.92 10.848 33.96C10.968 33 11.088 32.04 11.088 31.2C11.088 30.72 11.328 30.24 11.448 29.76C11.568 29.4 11.568 28.92 11.568 28.44C11.568 28.2 11.448 28.08 11.448 27.96C11.448 27.84 11.568 27.6 11.688 27.36C11.808 27.24 11.688 27.12 11.568 27.12C11.328 27 11.208 27 11.088 26.88C11.088 26.76 10.968 26.76 10.848 26.64L10.608 26.52C10.488 26.4 10.368 26.4 10.368 26.28C10.248 26.16 10.128 26.16 10.008 26.16C9.28799 25.68 8.44799 25.44 7.96799 24.72C7.72799 24.48 7.248 24.48 6.888 24.24L3.28799 21.84C3.04799 21.72 2.80799 21.48 2.68799 21.24C2.44799 20.88 2.44798 20.52 2.80798 20.04C3.04798 19.32 3.64799 19.44 4.008 19.56C4.608 19.68 5.56801 19.56 5.92801 20.28C6.04801 20.28 6.048 20.28 6.168 20.28C7.608 20.28 8.80799 21.12 10.128 21.48C10.368 21.48 10.488 21.6 10.728 21.84C11.208 22.2 11.928 22.08 12.528 22.44C12.648 22.56 12.648 22.56 12.768 22.56L13.248 22.8C13.608 23.04 13.968 23.16 14.328 23.4V23.52C14.808 23.76 15.288 24.12 15.648 24.36C16.008 24.72 16.368 25.2 16.368 25.68C16.488 26.04 16.608 26.4 16.728 26.76C16.728 27.12 16.728 27.6 16.488 27.96C16.608 28.08 16.608 28.32 16.608 28.56C16.608 28.56 16.488 28.68 16.488 28.8V28.92C16.488 29.04 16.368 29.04 16.368 29.04C16.368 29.16 16.248 29.16 16.488 29.28C16.488 29.28 16.608 29.28 16.488 29.28C16.248 29.4 16.248 29.52 16.368 29.64C16.368 29.76 16.368 29.88 16.248 30C16.248 30.12 16.128 30.24 16.248 30.12C16.488 30.12 16.488 30.12 16.368 30.24C16.368 30.36 16.248 30.6 16.128 30.72C16.128 30.84 16.128 30.84 16.128 30.96C16.128 30.96 16.248 30.96 16.248 31.08C16.248 31.2 16.248 31.32 16.008 31.8C16.008 31.92 16.128 32.04 16.128 32.04C16.248 32.04 16.248 31.92 16.368 31.8C16.128 32.64 16.248 32.4 16.368 32.16C16.488 31.8 16.608 31.8 16.608 31.8C16.728 31.8 16.728 31.8 16.848 31.56C16.848 31.2 16.968 31.08 16.968 31.08C16.968 30.96 17.088 30.96 17.088 30.72H17.208V30.6L17.328 30.48C17.328 30.36 17.328 30.24 17.448 30.24C17.568 30 17.808 29.76 18.048 29.76C18.168 29.76 18.288 29.52 18.408 29.4C18.408 29.4 18.408 29.28 18.528 29.16L18.648 28.8C18.768 28.56 19.008 28.32 19.128 28.2C19.368 27.72 19.728 27.24 20.088 26.88C20.448 26.64 20.808 26.4 21.288 26.16C21.648 26.04 22.128 25.92 22.608 25.92C23.208 25.92 23.928 26.04 24.528 26.4L25.488 27L25.968 27.24L26.208 27.48C26.208 27.48 26.328 27.48 26.328 27.6C26.808 27.96 27.528 28.08 28.128 28.32C28.488 28.44 28.728 28.56 29.088 28.8L29.688 29.16L29.928 29.28C29.928 29.4 29.928 29.4 29.928 29.4C30.168 29.28 30.168 29.16 30.288 29.16C30.288 29.16 30.288 29.16 30.288 29.28C30.408 29.4 30.528 29.4 30.408 29.28C30.408 29.04 30.168 28.92 30.168 28.92C30.168 28.92 30.288 29.04 30.288 28.92C30.288 28.92 30.408 28.92 30.528 28.8L30.168 27.72C30.048 27.36 29.928 27 29.928 26.64C29.808 26.04 29.568 25.44 29.328 24.84L29.088 24.24C29.088 24 28.968 23.64 28.848 23.4C28.728 22.92 28.728 22.44 28.728 22.08C28.848 21.72 28.728 21.24 28.848 20.88C28.968 20.28 29.208 19.8 29.568 19.44C29.928 18.96 30.408 18.6 30.888 18.36C31.128 18.24 31.248 18 31.368 17.76C31.488 17.52 31.848 17.4 32.328 17.28C32.568 17.16 32.808 16.92 32.808 16.8C32.808 16.68 32.808 16.68 32.808 16.68C32.928 16.56 33.288 16.32 33.528 16.2C33.768 15.96 33.888 15.72 34.128 15.6C34.128 15.48 34.248 15.36 34.368 15.24C34.488 15.12 34.728 15 34.848 14.76C34.848 14.52 34.848 14.4 34.728 14.28C34.608 14.28 34.368 14.28 34.248 14.28C34.248 14.28 34.008 14.28 34.128 14.16C34.968 13.44 34.128 13.92 33.528 14.16C32.928 14.4 32.688 14.4 32.448 14.4C31.968 14.28 31.128 14.4 30.528 14.64C30.288 14.76 30.168 14.88 29.928 14.88C29.688 14.88 29.328 14.88 28.968 14.76C28.848 14.64 28.608 14.64 28.488 14.76C28.248 14.88 27.888 14.88 27.648 15C27.408 15 26.928 15.12 26.568 15.12C26.088 15.24 25.728 15.24 25.368 15.24C25.008 15.24 24.648 15.12 24.288 14.88C23.688 14.52 23.208 13.8 22.728 13.2C22.248 12.6 21.768 12.24 21.528 11.52C21.408 11.16 20.928 10.92 20.448 10.68C20.448 10.68 20.328 10.56 20.208 10.56C20.208 10.44 20.088 10.32 20.208 10.32C20.208 9.84001 19.848 9.60004 19.608 9.48004C19.608 9.36004 19.488 9.35999 19.488 9.23999C19.368 8.87999 19.248 8.88001 19.128 8.76001C18.888 8.16001 18.528 7.44002 18.288 7.08002C18.168 6.96002 17.928 6.60005 17.808 6.36005C17.688 6.24005 17.568 6.12 17.448 6C17.208 6.12 17.208 6.36004 17.088 6.48004C17.088 6.60004 17.088 6.72003 16.968 6.84003C16.968 7.32003 16.968 7.92002 16.968 8.64001C17.088 9.00002 16.968 9.12005 16.848 9.36005C16.728 9.60005 16.728 9.96001 16.728 10.2V11.04V11.16C16.608 12.12 16.488 12.96 16.248 13.8C16.248 13.92 16.128 13.92 16.248 13.92C16.248 14.04 16.248 14.16 16.368 14.28C16.368 14.4 16.368 14.52 16.248 14.64C16.248 15 16.128 15.24 16.128 15.48C16.008 15.6 15.888 15.84 15.888 16.08C15.768 16.44 15.648 16.8 15.408 17.04C15.168 17.4 14.808 17.4 14.448 17.52C13.728 17.76 12.888 17.88 12.168 18.24C12.048 18.36 11.928 18.36 11.808 18.36C10.968 18.36 10.008 18.36 9.168 18.48C8.808 18.48 8.44801 18.72 8.20801 18.84C7.24801 19.2 6.408 18.96 5.448 19.08C4.968 19.2 4.368 19.2 3.888 19.32C3.648 19.44 3.52799 19.44 3.28799 19.44H3.048C3.048 19.56 3.048 19.56 3.048 19.44C3.048 19.44 2.80799 19.32 2.68799 19.56C2.68799 19.68 2.568 19.8 2.448 20.04C2.448 20.4 2.32801 20.64 2.20801 20.88C2.08801 21 1.84801 21.24 1.48801 21.12C1.12801 21.12 0.527995 20.76 0.287995 20.16C-0.192006 19.32 -0.0719898 18.12 0.64801 17.28C1.00801 16.8 1.48801 16.56 2.08801 16.32C2.20801 16.32 2.44799 16.2 2.68799 16.2C3.04799 16.08 3.40801 16.08 3.64801 15.84C4.12801 15.72 4.60801 15.48 5.08801 15.48C5.92801 15.48 6.768 15.24 7.608 15C7.968 14.88 8.44801 14.88 8.80801 14.64C9.16801 14.28 9.64799 14.16 10.128 14.28C10.488 14.28 10.728 14.28 11.088 14.28C11.208 14.16 11.328 14.16 11.448 14.16C11.568 14.16 11.568 14.04 11.568 14.04C11.568 13.8 11.688 13.92 11.928 13.92C12.048 13.92 11.928 13.8 11.928 13.68C11.808 13.68 11.928 13.68 11.928 13.68C12.048 13.68 12.168 13.68 12.168 13.56H12.288V13.44C12.288 13.08 12.288 12.72 12.288 12.36C12.288 11.76 12.408 11.28 12.528 10.68C12.528 10.56 12.648 9.96004 12.768 9.48004C12.768 9.00004 12.768 8.52004 12.888 8.04004C12.888 7.32004 13.008 6.72 13.128 6C13.248 5.64 13.248 4.56003 13.248 3.84003C13.368 3.72003 13.368 3.47999 13.368 3.35999C13.488 3.23999 13.488 3.12 13.608 3C14.088 2.28 14.568 1.80001 14.808 1.08002C14.928 0.960019 15.048 0.840037 15.168 0.720032C15.288 0.720032 15.528 0.60004 15.888 0.480042C16.008 0.360043 16.128 0.360046 16.248 0.360046C16.248 0.240041 16.368 0.23999 16.368 0.23999C16.488 0.119992 16.608 0 16.848 0C17.208 0.119998 17.328 0.119992 17.568 0.23999C17.688 0.23999 17.928 0.240041 18.168 0.360046C18.288 0.480045 18.528 0.480038 18.768 0.600037C18.888 0.720035 19.008 0.720032 19.248 0.720032L19.608 0.960022C19.728 1.08002 19.968 1.20001 20.088 1.32001C20.208 1.56001 20.448 1.68004 20.568 1.92004C20.808 2.28004 21.168 2.75999 21.528 3.23999C22.128 4.07999 22.608 5.04 23.088 6L23.448 6.36005C23.808 6.72005 24.048 7.08 24.408 7.56C25.008 8.52 25.608 9.36001 26.328 10.32L26.448 10.44H26.568C26.688 10.44 26.688 10.44 26.688 10.44C26.688 10.44 26.688 10.44 26.808 10.44C27.168 10.44 27.648 10.44 28.008 10.32C28.248 10.2 28.488 10.2 28.728 10.08L28.968 9.96002C29.088 9.96002 29.208 9.96002 29.328 9.96002L29.568 9.84003C30.528 9.60003 31.368 9.60003 31.968 9.72003C32.448 9.60003 32.928 9.48005 33.408 9.36005C33.648 9.36005 33.768 9.23999 34.128 9.23999C34.488 9.47999 35.088 9.12001 35.928 8.88C36.288 8.76001 36.768 8.64001 36.888 8.64001C37.128 8.88002 37.488 8.88 37.848 8.88C38.208 8.88 38.568 8.88 38.808 8.88C39.408 8.88 39.768 9.00005 39.888 9.36005C40.008 9.72005 40.128 9.84002 40.368 9.96002C40.488 10.08 40.608 10.08 40.728 10.2C40.848 10.32 41.088 10.56 41.208 10.68Z" fill="#332A24"/>
</svg>
