<svg width="242" height="8" viewBox="0 0 242 8" preserveAspectRatio="none" fill="none" xmlns="http://www.w3.org/2000/svg">
<path d="M240.82 3.8659C241.516 4.24312 241.012 4.97287 240.465 5.45663C240.122 5.90214 239.125 6.21642 238.536 6.45418C237.539 6.76846 236.886 6.63723 236.233 6.50601C235.825 6.58252 235.376 6.41303 234.786 6.65079C234.583 6.68905 234.154 6.64258 233.747 6.71909C233.544 6.75734 233.115 6.71085 232.912 6.74911C231.605 6.48665 230.739 6.74911 229.498 6.74911C228.878 6.62412 228.05 6.62412 227.223 6.87409C226.602 6.99907 225.775 6.99907 224.947 6.87409C224.12 6.62412 223.085 6.49914 222.051 6.74911C221.017 6.99907 219.983 6.87409 218.948 6.87409C218.121 6.87409 217.5 6.87409 216.673 6.99907C216.466 6.99907 216.259 6.99907 216.052 6.99907C214.811 6.49914 213.363 6.7491 212.122 6.87409C210.053 7.12405 208.192 6.87408 206.123 7.12405C205.296 7.12405 204.675 7.12406 204.055 6.99907C203.434 6.99907 202.606 7.12406 201.986 7.24904C201.572 7.24904 201.158 7.12405 200.745 7.12405C199.504 6.87408 198.262 6.87408 197.021 7.12405C196.194 7.24903 195.366 6.99907 194.539 6.99907H193.918H193.712C193.505 7.12406 193.298 7.12405 192.884 7.12405C191.022 6.99907 189.161 7.12406 187.299 7.24904C185.23 7.37402 183.162 7.37403 181.3 6.99907L180.68 7.12405C180.266 7.12405 179.852 7.24904 179.231 7.24904C177.37 7.12406 175.301 7.12406 173.233 7.24904C170.544 7.24904 167.647 7.499 164.958 7.24904C163.51 6.99907 161.855 7.24904 160.407 7.37402C159.373 7.37402 158.753 7.24904 158.132 6.99907C157.718 6.99907 157.304 6.99907 156.891 7.12405C156.684 7.12405 156.477 7.12405 156.27 7.12405C155.65 6.7491 155.236 6.99907 154.615 7.12405C154.409 7.24903 153.788 7.24903 153.581 7.12405C152.96 6.7491 152.133 6.99907 151.306 6.99907C150.478 7.12406 149.858 7.12405 149.03 6.87409C147.789 6.62412 146.341 6.74911 144.893 6.74911C143.031 6.74911 140.963 6.37415 139.101 6.37415C137.032 6.37415 134.964 5.99921 132.895 5.87422C132.482 5.87422 132.068 5.87422 131.654 5.87422C131.034 6.12419 130.206 5.9992 129.379 5.74923C128.551 5.87422 127.517 5.99921 126.483 5.99921C126.069 5.99921 125.655 5.99921 125.242 5.99921C123.38 5.62426 121.518 5.87422 119.656 5.87422C118.415 5.87422 117.174 5.74924 115.933 5.62426C114.278 5.49927 112.623 5.74924 110.968 5.62426C109.52 5.62426 108.072 5.62425 106.624 5.37428C105.797 5.2493 104.969 5.12432 104.142 5.2493C102.487 5.62426 101.039 5.2493 99.3842 5.2493C97.1088 5.12432 95.0402 5.2493 92.7648 5.2493C92.1443 5.2493 91.7305 5.37428 91.1099 5.37428C90.0756 5.49926 89.0414 5.62426 88.0071 5.62426C87.5934 5.62426 87.1796 5.87422 86.9727 5.49927H86.559C85.9385 5.49927 85.3179 5.49927 84.6974 5.49927C84.4905 5.62425 84.2836 5.62425 84.0767 5.74923C83.4562 5.9992 83.0425 5.99921 82.2151 5.87422C81.3877 5.74924 80.3533 5.87422 79.5259 5.99921C78.2848 6.12419 77.0435 5.99921 75.8024 5.99921C74.1476 6.12419 72.2858 6.12418 70.4241 6.37415C69.8035 6.49913 69.1829 6.12419 68.7692 6.24917C67.9418 6.49914 67.3213 6.24917 66.7007 6.37415C65.8733 6.49913 65.0458 6.37415 64.2184 6.37415C61.943 6.49913 59.8743 6.49914 57.5989 6.49914C55.944 6.49914 54.2891 6.49914 52.8411 6.24917C52.2206 6.24917 51.8069 6.24917 51.1863 6.24917H50.9794C50.7725 6.24917 50.3588 6.24917 50.152 6.37415C48.2903 6.62412 46.4285 6.62412 44.5668 6.37415C44.36 6.37415 44.1531 6.37415 43.9463 6.37415C42.7052 6.49913 41.2571 6.49914 40.0159 6.62412C39.1885 6.74911 38.5679 6.49914 37.9473 6.62412C37.3268 6.62412 36.9131 6.7491 36.4994 6.37415C35.8788 6.12418 35.0513 6.49914 34.2239 6.49914C31.7417 6.7491 29.0524 6.49914 26.3633 6.62412C25.7427 6.74911 25.329 6.62412 24.7084 6.62412C24.0878 6.49914 23.6742 6.49914 22.8468 6.62412C21.6056 6.74911 20.3644 6.99907 19.1233 6.62412C18.089 6.37415 17.0547 6.62412 16.0204 6.49914C15.3998 6.49914 14.5724 6.49913 13.745 6.37415C13.5381 6.37415 13.3114 6.49914 13.1244 6.49914C11.8157 6.37415 10.3199 6.62412 9.01118 6.24917C8.4503 6.12419 7.88937 6.37415 7.14152 6.37415C4.89798 6.24917 2.97762 6.12419 1.60642 5.99921C1.26362 5.99921 0.920846 5.87422 0.692312 5.74923C0.349511 5.49927 -0.0959958 5.13785 0.0182712 4.63791C-0.0959958 3.88801 0.692302 3.62452 1.0351 3.49954C1.7207 3.37455 2.29203 2.74964 3.0919 3.12459C3.0919 3.24957 3.20616 3.12459 3.20616 3.12459C4.4631 2.37468 7.32851 2.62465 9.57205 2.2497C9.94597 2.12471 10.32 2.12471 10.6939 2.12471C11.6287 2.37468 12.5038 1.74977 13.745 1.87475C14.5724 1.87475 15.3998 1.74977 16.0204 1.87475C17.2615 1.99974 18.2958 1.62478 19.537 1.62478C20.1575 1.62478 20.985 1.24983 21.8124 1.62478C22.433 1.12485 23.4673 1.99973 24.0879 1.37482C25.5359 1.87475 26.9839 1.24983 28.2251 1.4998C28.4319 1.4998 28.8456 1.62478 28.8456 1.4998C29.8799 0.999865 30.9142 1.37482 31.9485 1.37482C32.9828 1.4998 34.2239 1.37482 35.2582 1.37482C37.7405 1.24983 40.016 1.24983 42.4982 1.37482C43.9462 1.37482 45.1875 1.37482 46.4286 1.24983C46.6354 1.24983 46.6354 1.24983 46.6354 1.24983C47.8766 1.62478 49.1177 1.62478 50.3588 1.62478C51.8068 1.24983 53.2549 1.74977 54.7029 1.37482C56.5646 0.999868 58.6332 1.24983 60.4949 1.12485C60.9086 0.999871 61.3224 1.12485 61.7361 0.999866C62.5635 0.999866 63.391 0.749904 64.2184 1.12485C64.4253 1.24983 64.8389 1.12485 65.0458 1.12485C66.9075 0.624918 68.9761 0.749901 70.8378 0.624915C72.2858 0.499934 73.527 0.624916 74.975 0.749902C76.0093 0.874884 77.2504 0.624915 78.2847 0.624915C78.9053 0.624915 79.5259 0.624915 80.3533 0.624915L82.6288 0.749902C85.111 0.374949 89.8688 0.249969 90.9031 0.374951C93.1785 0.499936 99.1774 0 100.419 0C102.28 0 104.142 0 106.004 0C107.865 0 109.727 0.124983 111.589 0.249965C112.83 0.374946 114.278 0.374944 115.726 0.499929C117.795 0.749897 120.07 0.499936 122.139 1.12485C122.552 1.24983 123.173 1.12485 123.587 1.12485C124.828 0.999871 126.069 0.999867 127.31 1.24983C128.138 1.37482 129.172 1.24983 129.999 1.24983C131.034 1.24983 132.068 1.37481 132.688 1.62478C133.516 1.74976 134.343 1.74976 135.171 1.62478C135.998 1.37481 136.619 1.74977 137.446 1.74977C139.722 1.74977 141.79 1.62479 143.859 1.74977C144.893 1.87475 145.927 1.74977 146.755 1.87475C147.169 1.87475 147.375 1.74977 147.582 1.87475C148.41 2.49967 149.444 2.2497 150.271 2.12471C151.512 1.99973 152.547 1.99973 153.581 2.12471C155.443 2.2497 157.511 2.2497 159.373 2.2497C160.407 2.12471 161.649 1.99973 162.683 2.37468C162.89 2.49967 163.303 2.62465 163.51 2.49967C164.131 2.49967 164.545 2.49967 164.958 2.49967C165.579 2.49967 165.993 2.49967 166.613 2.49967C168.682 2.74964 170.957 2.37468 173.026 2.37468C174.267 2.2497 175.301 2.12472 176.542 2.37468C177.37 2.49967 177.99 2.12471 178.818 1.99973C179.231 1.87475 179.438 1.87475 179.852 1.87475C181.093 2.2497 182.334 2.12471 183.576 1.99973C183.989 1.99973 184.403 1.99973 184.61 1.99973C185.437 2.12471 186.265 1.99973 186.885 2.12471C188.747 2.2497 190.609 2.37468 192.264 2.37468C192.884 2.37468 193.298 2.49967 193.712 2.62465C193.918 2.62465 194.125 2.74963 194.332 2.74963C194.953 2.74963 195.573 2.87461 196.194 2.87461C196.608 2.87461 197.228 2.87461 197.642 2.9996C198.883 2.9996 200.124 2.87462 201.365 2.74963C202.193 2.62465 203.02 2.74963 204.055 2.74963C205.709 2.9996 207.157 2.74963 208.812 2.62465C210.26 2.62465 211.915 2.49967 213.363 2.62465C213.57 2.62465 213.57 2.62465 213.777 2.62465C214.604 2.12471 215.639 2.49967 216.466 2.49967C218.741 2.37468 220.81 2.87461 223.085 2.2497C223.292 2.2497 223.499 2.37468 223.706 2.37468C225.361 2.49967 227.016 2.74963 228.671 2.87461C229.291 2.9996 228.887 2.9333 229.498 2.81853C230.312 2.66551 231.148 2.63548 232.005 2.72845C232.84 2.69842 233.494 2.82965 234.329 2.79962C234.961 2.80786 235.39 2.85434 235.818 2.90083C236.45 2.90906 236.879 2.95553 237.307 3.00202C237.939 3.01025 238.571 3.01847 239.246 3.27269C239.471 3.35744 239.899 3.40393 240.124 3.48867C240.349 3.57341 240.595 3.78116 240.82 3.8659Z" fill="#332A24"/>
</svg>
